<svg xmlns="http://www.w3.org/2000/svg" viewBox="0 0 230 100"><path fill="#323333" d="M152 66.27a5.5 5.5 0 0 0-.36-.57c-2.74.24-5.75.43-8.11.48a.11.11 0 0 1-.12-.1l-.09-.66a.17.17 0 0 1 0-.1.13.13 0 0 1 .09 0c1.18 0 4-.12 4-.12v-.7H144a.12.12 0 0 1-.12-.12v-3.17a.12.12 0 0 1 .12-.12h3.53v-.61h-4.43a.11.11 0 0 1-.12-.11v-.52a.12.12 0 0 1 .12-.12h4.38v-.48a.12.12 0 0 1 .12-.12h.8a.12.12 0 0 1 .12.12v.47h4.69a.12.12 0 0 1 .11.12v.52a.12.12 0 0 1-.11.12h-4.69v.6h3.66a.12.12 0 0 1 .12.12v3.16a.12.12 0 0 1-.12.12h-.41a8.89 8.89 0 0 1 1 1.18.14.14 0 0 1 0 .16l-.57.47a.11.11 0 0 1-.09 0 .15.15 0 0 1-.09-.06zm-3.51-1.16l2.49-.14-.32-.31.26-.16h-2.48zm0-1.35h2.75v-.64h-2.75zm-3.72 0h2.68v-.64h-2.65zm3.72-1.34h2.75v-.64h-2.75zm-3.72 0h2.68v-.64h-2.65zm3.58 7.21l-.1-.71a.12.12 0 0 1 0-.1.18.18 0 0 1 .09 0h1.45c.32 0 .46-.12.46-.4v-.86h-4.75a11.29 11.29 0 0 1 1.39.89.14.14 0 0 1 .05.08.15.15 0 0 1 0 .09l-.47.6a.14.14 0 0 1-.08 0 .11.11 0 0 1-.09 0 9.35 9.35 0 0 0-1.43-1.07.11.11 0 0 1-.06-.09.11.11 0 0 1 0-.1l.4-.42h-2.35a.12.12 0 0 1-.12-.11v-.59a.13.13 0 0 1 .12-.12h7.38v-.42a.12.12 0 0 1 .12-.12h.81a.12.12 0 0 1 .12.12v.42h2a.12.12 0 0 1 .12.11v.59a.13.13 0 0 1-.12.12h-2v1.26a.79.79 0 0 1-.38.7 1.39 1.39 0 0 1-.79.22h-1.62a.1.1 0 0 1-.12-.09zm21.29.1a.12.12 0 0 1-.12-.12v-2.24a10.59 10.59 0 0 1-2.1 1.12 12.14 12.14 0 0 1-2.64.78.11.11 0 0 1-.13-.07l-.19-.53a.1.1 0 0 1 0-.09.12.12 0 0 1 .08-.06 12.51 12.51 0 0 0 4.15-1.66h-3.95a.11.11 0 0 1-.11-.11v-.58a.11.11 0 0 1 .11-.12h4.75v-.8h-3.87a.12.12 0 0 1-.11-.12v-.54a.11.11 0 0 1 .11-.12h3.87v-.79h-4.17a.11.11 0 0 1-.12-.11V63a.12.12 0 0 1 .12-.12h2.26l-.52-1.08h-2.16a.12.12 0 0 1-.12-.12v-.58a.12.12 0 0 1 .12-.12h1.55l-.62-1.31a.09.09 0 0 1 0-.1.1.1 0 0 1 .08-.06l.68-.19a.13.13 0 0 1 .14.07l.71 1.58h.92v-1.74a.12.12 0 0 1 .12-.12h.72a.12.12 0 0 1 .12.12V61h1.35v-1.77a.12.12 0 0 1 .12-.12h.72a.12.12 0 0 1 .12.12V61h.92l.72-1.58a.12.12 0 0 1 .14-.07l.68.19a.12.12 0 0 1 .08.06.17.17 0 0 1 0 .1l-.58 1.3h1.55a.12.12 0 0 1 .12.12v.57a.12.12 0 0 1-.12.12H173l-.52 1.08h2.26a.12.12 0 0 1 .12.12v.58a.11.11 0 0 1-.12.11h-4.17v.79h3.86a.12.12 0 0 1 .12.12v.52a.12.12 0 0 1-.12.12h-3.86V66h4.74a.12.12 0 0 1 .12.12v.58a.12.12 0 0 1-.12.12h-3.93a12.82 12.82 0 0 0 4.15 1.65.1.1 0 0 1 .08.06.12.12 0 0 1 0 .1l-.19.52a.11.11 0 0 1-.13.08 13.26 13.26 0 0 1-2.63-.78 10.92 10.92 0 0 1-2.11-1.12v2.27a.12.12 0 0 1-.12.12zm-1-6.85h2.74l.51-1.08h-3.77zm-45.06 6.26a.17.17 0 0 1 0-.1.12.12 0 0 1 .08 0 21.07 21.07 0 0 0 2.62-.44l-1.5-.38c-.26-.07-.56-.12-.56-.33a.62.62 0 0 1 .09-.26l.35-.7h-1.27a.13.13 0 0 1-.12-.12v-.54a.12.12 0 0 1 .12-.11h1.66c.08-.18.2-.42.28-.59h-1.22a.11.11 0 0 1-.11-.12v-1.82a.11.11 0 0 1 .11-.11h2.59v-.59h-2.48a.12.12 0 0 1-.12-.12v-1.1h-.72v.22a.12.12 0 0 1-.12.12h-.83v1.27a11.34 11.34 0 0 0 1.14 1.16.12.12 0 0 1 0 .16l-.39.51a.11.11 0 0 1-.09 0 .11.11 0 0 1-.09 0c-.15-.15-.37-.38-.5-.54s0 0 0 .05v5a.12.12 0 0 1-.12.12h-.7a.12.12 0 0 1-.12-.12V65h-.06a13.68 13.68 0 0 1-1.2 2.11.1.1 0 0 1-.08 0 .1.1 0 0 1-.09 0l-.47-.36a.11.11 0 0 1 0-.16 10.48 10.48 0 0 0 2-4.5h-1.46a.11.11 0 0 1-.11-.12v-.47a.11.11 0 0 1 .11-.12h1.47v-2a.11.11 0 0 1 .11-.12h.71a.12.12 0 0 1 .12.12v2h1v-.28a.13.13 0 0 1 .12-.12h.53v-1.13a.12.12 0 0 1 .12-.12h2.49v-.49a.12.12 0 0 1 .11-.12h.73a.12.12 0 0 1 .12.12v.48h2.5a.12.12 0 0 1 .11.12V61h.52a.12.12 0 0 1 .12.12v.48a.11.11 0 0 1-.12.11h-.52v1.1a.11.11 0 0 1-.11.12h-2.5v.59h2.59a.11.11 0 0 1 .12.11v1.78a.12.12 0 0 1-.12.12h-3.88l-.29.59H131a.11.11 0 0 1 .12.11v.54a.12.12 0 0 1-.12.12h-1.4a8.86 8.86 0 0 1-1.16 1.42c.84.23 1.48.42 2 .59a.11.11 0 0 1 .08.08.14.14 0 0 1 0 .11l-.41.54a.13.13 0 0 1-.15 0 22.79 22.79 0 0 0-2.35-.77 9.08 9.08 0 0 1-3.72.83.14.14 0 0 1-.13-.1zm2.14-2.26c-.12.21-.27.47-.36.61l2 .53a3.86 3.86 0 0 0 1.1-1.14zm2-2h1.82v-.69h-1.82zm-2.78 0h1.81v-.69H125zm2.78-2.6h1.66v-.6h-1.66zm-2.62 0h1.66v-.6h-1.66zm2.63-1.28h1.66v-.61h-1.66zm-2.62 0h1.66v-.61h-1.66zm-25 8.39v-.68a.12.12 0 0 1 .12-.13h1.41l.69-4h-1.66a.12.12 0 0 1-.12-.12v-.64a.12.12 0 0 1 .12-.13h1.81l.49-2.91h-2.09a.12.12 0 0 1-.12-.12V60a.12.12 0 0 1 .12-.12h6.92a.13.13 0 0 1 .12.12v.66a.12.12 0 0 1-.12.12H104l-.5 2.91h3.8a.13.13 0 0 1 .12.13v4.81h1a.12.12 0 0 1 .12.12v.69a.12.12 0 0 1-.12.12h-8.24a.12.12 0 0 1-.12-.19zm2.58-.81h3.67v-4h-3zm-4.23 1.17a.12.12 0 0 1-.13-.12v-5.4h-.06a10.27 10.27 0 0 1-1 1.44.12.12 0 0 1-.17 0l-.52-.42a.14.14 0 0 1 0-.17 17.81 17.81 0 0 0 2.79-5.84.11.11 0 0 1 .13-.09l.82.12a.14.14 0 0 1 .08 0 .12.12 0 0 1 0 .1 20.22 20.22 0 0 1-.95 2.53v7.64a.12.12 0 0 1-.12.12zm-.82-17.52a7.64 7.64 0 0 1-5.53-2 6.53 6.53 0 0 1-1.9-3.53l-.11-.58h3.19l.11.33a3.63 3.63 0 0 0 2.44 2.39 5.52 5.52 0 0 0 1.67.23 4.19 4.19 0 0 0 1.65-.29 3.67 3.67 0 0 0 2.29-3.51 3.69 3.69 0 0 0-1.06-2.75 3.73 3.73 0 0 0-2.78-1.06 5 5 0 0 0-2.11.44 3.9 3.9 0 0 0-1.34.93l-.27.32-2.69-1.58 1.41-9.91h11v3.08h-8.17L94.78 39l.26-.1a6.41 6.41 0 0 1 2.29-.42 8.71 8.71 0 0 1 3.07.5 6.33 6.33 0 0 1 2.21 1.43 6.52 6.52 0 0 1 2 4.9 6.88 6.88 0 0 1-7 6.91zm10.69-.23V31.67h14.93l-1.62 3.07h-10.15v5.75H122l-1.62 3.1h-8.87V52zM127 52V31.67h9.09a7.1 7.1 0 0 1 5 1.73A6.09 6.09 0 0 1 143 38a6.09 6.09 0 0 1-1.82 4.64 7.09 7.09 0 0 1-5 1.71h-7.69V52zm1.4-8.84h7.6a5.84 5.84 0 0 0 4.15-1.36 5 5 0 0 0 1.39-3.8 4.94 4.94 0 0 0-1.44-3.74A5.75 5.75 0 0 0 136 33h-7.52zm32 8.84l-5.15-8.18h-8.15V52h-1.4V31.67h9.69a7 7 0 0 1 4.88 1.67 5.79 5.79 0 0 1 1.8 4.49 4.89 4.89 0 0 1-3 5 8.83 8.83 0 0 1-1.73.59l-.72.15 5.47 8.43zm-13.3-9.47h7.9c2.45 0 4.18-.8 5.13-2.37a5 5 0 0 0-1-5.91 5.89 5.89 0 0 0-4-1.3h-8zm27.59 9.7a9.93 9.93 0 0 1-7.46-3 10.25 10.25 0 0 1-2.85-7.38 10.21 10.21 0 0 1 2.85-7.37 10.7 10.7 0 0 1 14.92 0 10.21 10.21 0 0 1 2.85 7.34 10.21 10.21 0 0 1-2.85 7.37 9.9 9.9 0 0 1-7.46 3.04zm0-19.48a8.61 8.61 0 0 0-6.52 2.64 9.05 9.05 0 0 0-2.39 6.43 9.05 9.05 0 0 0 2.39 6.43 9.36 9.36 0 0 0 13 0 9 9 0 0 0 2.4-6.43 9.05 9.05 0 0 0-2.39-6.43 8.63 8.63 0 0 0-6.49-2.64zm-121.6-2.63h23.33a.16.16 0 0 1 .15.12.15.15 0 0 1-.06.17l-31.26 21.5a.17.17 0 0 1-.19 0 .17.17 0 0 1-.05-.18l7.78-21.39a.31.31 0 0 1 .3-.22zm-7.74 24.07h13.33a.19.19 0 0 1 .12.07.16.16 0 0 1 0 .13L55 69.68a.16.16 0 0 0 .07.18.17.17 0 0 0 .19 0l23.41-23.41a.16.16 0 0 0-.11-.27h-21.9a.53.53 0 0 0-.27.08L45.26 53.9a.18.18 0 0 0-.06.18.16.16 0 0 0 .15.11z"/></svg>