<svg xmlns="http://www.w3.org/2000/svg" viewBox="0 0 230 100"><path d="M85.27 60c.06.26.16.53.16.63a.47.47 0 0 1-.16.37c0 .15-.2.15-.41.21s-.53.05-.84.05h-.94c-.21 0-.37-.05-.53-.05s-.21-.06-.26-.16-.05-.16-.16-.26l-6.8-19.68-4 11.57h6.7c.37 0 .53.26.37.62l-.52 1.26a1 1 0 0 1-.84.63h-6.47l-1.94 5.6c0 .16 0 .21-.15.26a1.27 1.27 0 0 1-.27.21 3.84 3.84 0 0 0-.52.16c-.21 0-.52.05-.78.05a3.91 3.91 0 0 1-.84-.05.89.89 0 0 1-.52-.16.56.56 0 0 1-.16-.37 1.79 1.79 0 0 1 .16-.63l7.79-22c.06-.15.16-.2.21-.36a1.09 1.09 0 0 1 .37-.21 2 2 0 0 1 .57 0h2.41a2.43 2.43 0 0 1 .37.21 1.36 1.36 0 0 1 .21.36zM149 44.9a5.18 5.18 0 0 0-.53-2.36 3.2 3.2 0 0 0-1.36-1.41 4.55 4.55 0 0 0-1.62-.57c-.58-.06-1.15-.16-1.62-.16h-2.83v9.31h2.78a7.4 7.4 0 0 0 2.35-.36 4 4 0 0 0 1.57-1 4.14 4.14 0 0 0 .94-1.51 6 6 0 0 0 .32-1.94m-7.91 15.59c0 .58-.41.84-.83.63l-1.36-.57a1.53 1.53 0 0 1-.84-1.42V39.19a1.18 1.18 0 0 1 .37-1 1.21 1.21 0 0 1 .83-.26h5a12.47 12.47 0 0 1 1.42.05c.42 0 1 .16 1.62.26a8.34 8.34 0 0 1 1.94.79 5.23 5.23 0 0 1 1.62 1.41 7.49 7.49 0 0 1 1 1.94 8.51 8.51 0 0 1 .37 2.4 8.69 8.69 0 0 1-.57 3.14 7 7 0 0 1-1.63 2.41 8.05 8.05 0 0 1-2.61 1.52 11 11 0 0 1-3.72.57h-2.62zm52.39-5.86a6.22 6.22 0 0 1-4.61 6.23 11.2 11.2 0 0 1-3 .42 9.51 9.51 0 0 1-2.15-.21 8.65 8.65 0 0 1-1.72-.52c-.53-.27-1-.37-1.26-.58a3.58 3.58 0 0 1-.73-.52.81.81 0 0 1-.26-.53 3.43 3.43 0 0 1-.06-.83v-.63c0-.11.06-.26.06-.42s0-.21.15-.21a.34.34 0 0 1 .21 0 1.38 1.38 0 0 1 .74.26 4.36 4.36 0 0 0 1.15.63 15.4 15.4 0 0 0 1.72.63 7.4 7.4 0 0 0 2.25.26 4.86 4.86 0 0 0 1.78-.26 4 4 0 0 0 1.42-.74 2.75 2.75 0 0 0 .94-1.2 3.93 3.93 0 0 0 .26-1.57 3.11 3.11 0 0 0-.42-1.62 4.19 4.19 0 0 0-1.16-1.22 13 13 0 0 0-1.62-.94c-.63-.26-1.21-.57-1.83-.84a12.09 12.09 0 0 1-1.84-1 7.88 7.88 0 0 1-1.62-1.26 5.46 5.46 0 0 1-1.15-1.72 6.19 6.19 0 0 1-.42-2.36 5.48 5.48 0 0 1 .53-2.51 5.4 5.4 0 0 1 1.41-1.83 7.3 7.3 0 0 1 2.2-1.15 9.27 9.27 0 0 1 2.72-.42 7.21 7.21 0 0 1 1.52.16 5.39 5.39 0 0 1 1.41.36 4.62 4.62 0 0 1 1.2.53c.37.2.58.36.73.41s.21.21.21.27.06.15.06.2a3.34 3.34 0 0 1 0 .37V41.84c0 .16-.06.21-.16.21a.33.33 0 0 1-.21 0 1 1 0 0 1-.58-.21l-1-.57a10.11 10.11 0 0 0-1.41-.58 7 7 0 0 0-1.83-.26 3.94 3.94 0 0 0-1.63.26 4.09 4.09 0 0 0-1.15.63 5.08 5.08 0 0 0-.73 1 3.06 3.06 0 0 0-.21 1.21 3.25 3.25 0 0 0 .42 1.62 5.89 5.89 0 0 0 1.15 1.2 17.19 17.19 0 0 0 1.62 1c.63.26 1.26.57 1.94.83a13 13 0 0 1 1.83 1 7.58 7.58 0 0 1 1.65 1.21 5.81 5.81 0 0 1 1.15 1.73 9.38 9.38 0 0 1 .37 2.51m-13.76 0a6.94 6.94 0 0 1-.58 2.83 7.12 7.12 0 0 1-1.62 2.14 7 7 0 0 1-2.41 1.26 11.26 11.26 0 0 1-3 .42 8.91 8.91 0 0 1-2.15-.21 8.75 8.75 0 0 1-1.73-.52c-.52-.27-.94-.37-1.25-.58a6.24 6.24 0 0 1-.74-.52.92.92 0 0 1-.26-.53 4.1 4.1 0 0 1-.05-.83 2.07 2.07 0 0 1 .05-.63c0-.16.06-.26.06-.42s.15-.21.2-.21a.34.34 0 0 1 .21 0 1.38 1.38 0 0 1 .74.26 4.36 4.36 0 0 0 1.15.63 15.4 15.4 0 0 0 1.72.63 7.43 7.43 0 0 0 2.26.26 4.84 4.84 0 0 0 1.77-.26 4 4 0 0 0 1.42-.74 2.68 2.68 0 0 0 .94-1.2 3.93 3.93 0 0 0 .26-1.57 3.11 3.11 0 0 0-.42-1.62 4.19 4.19 0 0 0-1.2-1.22 13 13 0 0 0-1.62-.94c-.63-.26-1.2-.57-1.83-.84a11.54 11.54 0 0 1-1.83-1 7.68 7.68 0 0 1-1.63-1.26 5.64 5.64 0 0 1-1.15-1.72 6.19 6.19 0 0 1-.42-2.36 5.48 5.48 0 0 1 .53-2.51 5.4 5.4 0 0 1 1.41-1.83 7.3 7.3 0 0 1 2.2-1.15 9.27 9.27 0 0 1 2.72-.42 7.21 7.21 0 0 1 1.52.16 5.39 5.39 0 0 1 1.41.36 4.62 4.62 0 0 1 1.2.53 7.69 7.69 0 0 0 .74.41c.15.16.2.21.2.27a.26.26 0 0 1 .06.2 3.34 3.34 0 0 1 .05.37v1.15c0 .16-.05.26-.05.42s-.06.21-.16.21a.33.33 0 0 1-.21 0 .92.92 0 0 1-.57-.21l-1-.57a13.53 13.53 0 0 0-1.41-.58 7 7 0 0 0-1.83-.26 3.94 3.94 0 0 0-1.63.26 4.09 4.09 0 0 0-1.15.63 5.08 5.08 0 0 0-.73 1 3.06 3.06 0 0 0-.21 1.21 3.25 3.25 0 0 0 .42 1.62 5.89 5.89 0 0 0 1.15 1.2 17.19 17.19 0 0 0 1.62 1c.63.26 1.21.57 1.94.83a12.46 12.46 0 0 1 1.83 1 7.58 7.58 0 0 1 1.62 1.25 5.81 5.81 0 0 1 1.15 1.73 16.93 16.93 0 0 1 .27 2.47zm-44.23-2.09a12 12 0 0 1-.57 3.72 7.37 7.37 0 0 1-4.45 4.44 10.8 10.8 0 0 1-3.61.58 9.94 9.94 0 0 1-3.4-.58 7.92 7.92 0 0 1-2.62-1.57 8.67 8.67 0 0 1-1.73-2.61 9.88 9.88 0 0 1-.57-3.61V38.83v-.21s.16-.16.21-.16a1.21 1.21 0 0 0 .42-.16h.73a3.35 3.35 0 0 1 .73 0 1 1 0 0 1 .53.16c.15 0 .21 0 .21.16a.33.33 0 0 1 0 .21v13.66a10 10 0 0 0 .37 2.72 4.67 4.67 0 0 0 1.22 1.93 4.11 4.11 0 0 0 1.72 1.16 6 6 0 0 0 2.25.41 8.51 8.51 0 0 0 2.36-.36 4.06 4.06 0 0 0 1.73-1.15 4.15 4.15 0 0 0 1-1.94 8.13 8.13 0 0 0 .37-2.62V38.83s0-.21.05-.21.16-.16.21-.16a1.21 1.21 0 0 0 .42-.16h.73a3.31 3.31 0 0 1 .73 0c.21 0 .37.06.42.16s.21 0 .27.16a.33.33 0 0 1 .05.21zm-18.26 5.18v.52a.81.81 0 0 1 0 .37.34.34 0 0 1-.16.26c-.05.05-.16.21-.21.26s-.36.27-.73.58a9.09 9.09 0 0 1-1.41.73 15 15 0 0 1-1.94.58 11.78 11.78 0 0 1-2.36.21 9.5 9.5 0 0 1-4-.74 7.8 7.8 0 0 1-3-2.14 9.45 9.45 0 0 1-1.93-3.56 16.69 16.69 0 0 1-.63-4.81 14.75 14.75 0 0 1 .73-5 10.64 10.64 0 0 1 2-3.71 8.94 8.94 0 0 1 7.17-3.14 8.28 8.28 0 0 1 1.94.21c.68.15 1.2.26 1.73.42s1 .41 1.41.62a2.49 2.49 0 0 1 .84.58c.15.16.26.26.26.37s.05.15.16.26 0 .21 0 .42v1.15a.69.69 0 0 1-.16.42c-.05.15-.05.21-.16.21a.31.31 0 0 1-.21 0 1.94 1.94 0 0 1-.73-.37 8.33 8.33 0 0 0-1.15-.78 12 12 0 0 0-1.73-.79 7.84 7.84 0 0 0-2.35-.36 6.79 6.79 0 0 0-2.77.57 5.94 5.94 0 0 0-2.15 1.78 8.76 8.76 0 0 0-1.36 2.83 11.81 11.81 0 0 0-.58 3.92 11.64 11.64 0 0 0 .53 3.77 7.89 7.89 0 0 0 1.36 2.77 6.21 6.21 0 0 0 2.14 1.73 6.94 6.94 0 0 0 2.83.58 7.32 7.32 0 0 0 2.35-.37c.63-.21 1.21-.52 1.73-.73a9.75 9.75 0 0 0 1.15-.74 1.56 1.56 0 0 1 .73-.36.31.31 0 0 1 .21 0c.06 0 .06 0 .16.21a2.91 2.91 0 0 1 0 .42 1.38 1.38 0 0 1 .27.85zm-16.43 0v.52a.81.81 0 0 1 0 .37.38.38 0 0 1-.16.26c0 .05-.16.21-.21.26s-.37.27-.73.58a8.8 8.8 0 0 1-1.42.73 14.39 14.39 0 0 1-1.93.58 11.84 11.84 0 0 1-2.36.21 9.55 9.55 0 0 1-4-.74 7.84 7.84 0 0 1-3-2.14 9.18 9.18 0 0 1-1.93-3.56 16.69 16.69 0 0 1-.66-4.79 14.75 14.75 0 0 1 .73-5 10.48 10.48 0 0 1 2-3.71 8.94 8.94 0 0 1 7.17-3.14 8.28 8.28 0 0 1 1.94.21 4.09 4.09 0 0 1 1.62.36q.78.31 1.41.63a2.38 2.38 0 0 1 .84.58c.16.15.26.26.26.36s0 .16.16.27 0 .2 0 .41v1.16a.65.65 0 0 1-.16.41c0 .16 0 .21-.15.21a.3.3 0 0 1-.21.06 1.9 1.9 0 0 1-.74-.37 8.54 8.54 0 0 0-1.15-.79 13.65 13.65 0 0 0-1.72-.78 7.44 7.44 0 0 0-2.36-.37 6.87 6.87 0 0 0-2.77.58 5.84 5.84 0 0 0-2.15 1.78 9 9 0 0 0-1.36 2.82 12.43 12.43 0 0 0-.52 3.82 11.57 11.57 0 0 0 .52 3.77 8.2 8.2 0 0 0 1.36 2.78 6.44 6.44 0 0 0 2.15 1.72 6.89 6.89 0 0 0 2.82.58 7.39 7.39 0 0 0 2.45-.35c.63-.21 1.2-.52 1.73-.73a9.42 9.42 0 0 0 1.15-.73 1.55 1.55 0 0 1 .73-.37.33.33 0 0 1 .21.05l.16.21a2.91 2.91 0 0 1 0 .42 1.84 1.84 0 0 1 .26.87zM168.69 60c.06.26.16.53.16.63a.47.47 0 0 1-.16.37.88.88 0 0 1-.52.15c-.26 0-.52.06-.84.06h-.94c-.21 0-.37-.06-.52-.06s-.21-.05-.26-.15-.06-.16-.16-.26L158.7 41l-3.93 11.57h6.7c.37 0 .53.26.37.63l-.52 1.25a1 1 0 0 1-.84.63H154l-1.94 5.6a.24.24 0 0 1-.15.26 1 1 0 0 1-.27.21 3.84 3.84 0 0 0-.52.16h-.78a3.91 3.91 0 0 1-.84 0 .88.88 0 0 1-.53-.16.6.6 0 0 1-.15-.36 1.86 1.86 0 0 1 .15-.63l7.8-21.62c.05-.15.16-.21.21-.36a1.09 1.09 0 0 1 .37-.21 2 2 0 0 1 .57 0h2.52a2.29 2.29 0 0 1 .36.21 1.13 1.13 0 0 1 .21.36zM56.28 32.71l-18.58 2A1.39 1.39 0 0 0 36.5 36v24.34a1.24 1.24 0 0 0 .78 1.2L50 67.14a2 2 0 0 0 .58.16 1.18 1.18 0 0 0 .73-.21 1.32 1.32 0 0 0 .63-1.15v-6l4.39-.52a2.25 2.25 0 0 0 1.94-2.15V34.48a1.83 1.83 0 0 0-1.99-1.77zm-.78 23.34a.9.9 0 0 1-.79.83l-2.82.26V41.92a1.25 1.25 0 0 0-.79-1.21l-8.58-3.82 12.09-1.25a.93.93 0 0 1 .94.94c-.05-.11-.05 19.47-.05 19.47z" fill="#323333"/></svg>