<svg xmlns="http://www.w3.org/2000/svg" viewBox="0 0 230 100"><path d="M148.49 43.86a12.83 12.83 0 0 0 .43 1.7 23.46 23.46 0 0 0-3.18 2.44l-.41.48a11.24 11.24 0 0 0-1-1.89 2 2 0 0 0 .57-1.54V43.6h-1.74v.4a5.59 5.59 0 0 1-2.07 4.82 8.7 8.7 0 0 0-1.52-1.26 3.89 3.89 0 0 0 1.74-3.6v-2.14h5.53v3zm-5.27-9.8h-3.29v-1.77h3.29V31h2.13v1.26h3.18v1.77h-3.18v.79H148v1.73h-7.45v-1.7h2.7zm13.83 5.82a13.73 13.73 0 0 1-2.6 5.31 9.37 9.37 0 0 0 3.55 2 7.44 7.44 0 0 0-1.26 1.69 9.84 9.84 0 0 1-3.65-2.21 13.39 13.39 0 0 1-4 2.53 8.32 8.32 0 0 0-1.19-1.75 11 11 0 0 0 3.87-2.45 13.31 13.31 0 0 1-1.77-3.51l1-.24h-1.86v-1.84h.86a18.26 18.26 0 0 0-1.44-1.34v2.21h-1.66v1h-5.34v-.93h-1.62v-3.14h8.6V38a4.25 4.25 0 0 0 1.55-3.78v-2.6h5.67v4.29c0 .57 0 .79.26.79h.69a3.84 3.84 0 0 0 .9-.14 14.17 14.17 0 0 0 .18 1.83 3.13 3.13 0 0 1-1 .14h-.94c-1.74 0-2.09-.76-2.09-2.64v-2.44h-1.66v.9a6.34 6.34 0 0 1-1.95 5h5.63zm-15.3-.94v.62h4.91v-.62zm10.1 2.33a11.14 11.14 0 0 0 1.26 2.42 10 10 0 0 0 1.43-2.44zM136 60.82a21.79 21.79 0 0 1-2.23 7.18 9.22 9.22 0 0 0 3.78 3.22 9.53 9.53 0 0 0-1.59 2 10.72 10.72 0 0 1-3.63-3.13 12.63 12.63 0 0 1-4.12 3.28 9.62 9.62 0 0 0-1.26-2 10.23 10.23 0 0 0 4.29-3.37 21.93 21.93 0 0 1-1.51-4 10.32 10.32 0 0 1-1 1.6 12.78 12.78 0 0 0-1.36-1.49c-.1 5.39-.19 7.49-.68 8.16a1.91 1.91 0 0 1-1.26.86 13 13 0 0 1-2.07.07 5.86 5.86 0 0 0-.61-2.09h1.49a.59.59 0 0 0 .54-.29c.25-.43.37-2.06.44-6.61h-1.7c0 3.07-.44 6.31-2.85 9a7.9 7.9 0 0 0-1.7-1.51 11 11 0 0 0 2.34-7.7v-3.8h-1.89v-2.09h3.79a20.48 20.48 0 0 0-.8-2.52l2-.44a22.36 22.36 0 0 1 .93 2.52l-1.59.47H128v2.06h-4.5v1.9h3.79v1.09a19.24 19.24 0 0 0 2.78-8.08l2.43.41c-.17 1.08-.39 2.14-.65 3.15h5.63v2.13zm-4.85.07a23.67 23.67 0 0 0 1.39 4.67 19.46 19.46 0 0 0 1.27-4.76h-2.53zm19.38 1.83a12.92 12.92 0 0 0 7.27 8.34 9 9 0 0 0-1.7 2.17 14.48 14.48 0 0 1-7.33-8.23 13.37 13.37 0 0 1-7.26 8.24 6.88 6.88 0 0 0-1.73-1.95 11.67 11.67 0 0 0 7-8.57h-6.74v-2.36h7.07c.19-1.83.18-3.58.19-5.19h2.53a40.8 40.8 0 0 1-.23 5.19h7.58v2.36zm-15.6-30.9H122v12.53h12.93zm-2.53 3.54V42.22h-8.07v-1.47h6.08v-2h-6.08v-1.4h6.08v-2h-6.08V34h8.14zm-12.8 12a17.81 17.81 0 0 1 1.88 1.7 26.53 26.53 0 0 0 5.9-3.14l-2.21-1.52a20.29 20.29 0 0 1-5.61 2.97zm11.78-2.93l-2 1.49a52.28 52.28 0 0 1 5.57 3.22l2.12-1.67a55.71 55.71 0 0 0-5.73-3.03zm-47.06 37c-3.57 0-8.14-2.53-13.6-7.49a72.53 72.53 0 0 1-10.8-12.21 11.58 11.58 0 0 1-.66-11.64l.1-.21c3.09-6.39 14.07-15.33 24.9-15.33s21.81 8.93 24.92 15.33a11.6 11.6 0 0 1-.54 11.88A73.1 73.1 0 0 1 97.88 74c-5.47 5-10.06 7.48-13.6 7.48zm0-44.11c-9.59 0-19.64 8.13-22.34 13.72l-.08.17a8.85 8.85 0 0 0 .43 8.84 69.69 69.69 0 0 0 10.3 11.73c4.79 4.35 9 6.75 11.69 6.75s6.89-2.4 11.68-6.75a69.46 69.46 0 0 0 10.3-11.63 8.85 8.85 0 0 0 .36-9.06c-2.75-5.59-12.8-13.72-22.38-13.72zm10.65 5.88a29.19 29.19 0 0 0-2.66-1.39c-2.72 2.53-5.77 4.71-8 4.71s-5.27-2.16-8-4.71c-.91.42-1.8.88-2.67 1.39 3.24 3.2 7.26 6.18 10.65 6.18s7.41-2.93 10.64-6.13zM68.4 37q1.18-.77 2.46-1.44l-.24-.44a5.62 5.62 0 0 1-.15-5l.15-.37c2.25-4.09 8-8.33 13.67-8.33S95.65 25.6 98 29.7a5.67 5.67 0 0 1 0 5.42l-.26.44q1.26.67 2.46 1.44l.28-.46a8.42 8.42 0 0 0 0-8.2c-2.59-4.76-9.13-9.82-16.14-9.82s-13.61 5.06-16.24 9.82l-.25.5a8.47 8.47 0 0 0 .25 7.7zm35.06 2.61s3.57 3.11 5.05 4.79L104.09 34a9.68 9.68 0 0 1-1.26 4zm-38.4 0S61.48 42.72 60 44.4L64.49 34a9.58 9.58 0 0 0 1.26 4z" fill="#323333"/></svg>