<svg viewBox="0 0 230 100" xmlns="http://www.w3.org/2000/svg"><path d="m55.64 35.3a16.17 16.17 0 0 1 8.62-6.3c7.07-2.41 19.58-2.64 27.69-.09 8.37 2.64 10.43 9.63 6.47 16.22-2.51 4.18-6.22 7.11-10.33 9.57-6 3.62-12.42 6.11-19.6 6-4.29-.09-6.1-2.51-4.58-6.82 2-5.54 6.49-12 8.24-14.52 2.13-3 2.09-3.68 3.19-5.06 1.29-1.62 4.53-2.54 7-1.73a.38.38 0 0 1 .1.65c-9.17 7.19-14.77 20.12-16 24.06-.42 1.34 0 2 .56 2.1a17.89 17.89 0 0 0 5-.19 34.41 34.41 0 0 0 21.86-13.5 11.39 11.39 0 0 0 2.7-7c-.11-4.23-2.71-6.8-6.29-8.29-5.21-2.17-10.65-2.55-16.34-2.1a26.1 26.1 0 0 0 -11.45 3.59 13.14 13.14 0 0 0 -2.87 2.37c-2.38 2.68-1.77 5.56 1.46 7.13a16.3 16.3 0 0 0 2.64.92.38.38 0 0 1 0 .72c-3.23 1-7.24-.92-8.38-3.3a5.31 5.31 0 0 1 .31-4.43zm119.18 14.7c.49-1-.15-1.41-.31-1.17a32.85 32.85 0 0 1 -5.64 6.17c-2.28 1.87-5.38 3.18-5.94 2.24-.69-1.14 1.39-5.78 2.59-8a46.5 46.5 0 0 1 4-5.7.75.75 0 0 0 -.38-1.18c-2.05-.63-2.92-.15-3.76 2.07a29.54 29.54 0 0 1 -3.56 6 20 20 0 0 1 -7.4 6.15c-2.59 1.19-4.78 1.25-5.43-.32s1.09-4.8 1.09-4.8c3.62-.28 8.22-1.9 10.12-5.75 1.47-3-1-6-5.62-2.81a20.2 20.2 0 0 0 -7.81 9.81c-1.09 3.28.41 6.52 4.4 6.25a11.78 11.78 0 0 0 7.5-3.53c.78-.72 2.9-3.19 2.9-3.19s-2.08 3.84-.72 5.65c1.5 2 5.13 1.18 9.13-2.33a23 23 0 0 0 4.84-5.56zm-23.69.51a.19.19 0 0 1 -.2-.29c1.83-2.75 6.7-7.65 8.12-7.08 1.63.67-3.12 6.51-7.92 7.38zm-38.24-7.58a7.61 7.61 0 0 0 -4.93-.66c-5 .87-10.24 6.1-11.43 11.34-.52 2.27.06 4 1.73 4.72a4.71 4.71 0 0 0 4.86-1.26c.81-.77 2-2.33 3-3.58a.07.07 0 0 1 .12.08c-1.77 3.44-.59 4.88 1.06 5.31 2.1.56 4.75-1.71 6-2.8a.19.19 0 0 1 .3.22 44.68 44.68 0 0 0 -3.6 12c-.62 3.45.25 5 3.12 4.51a.37.37 0 0 0 .09-.71 2.11 2.11 0 0 1 -1.3-2.7c1-4.43 1.62-7.9 3.62-12.12 1 2.53 3.7 2.5 6.09 1.31 6-3 9.41-9.31 9.84-12.8.37-3.06-3-4.47-6.19-2.1a54.76 54.76 0 0 0 -6 6.31 38 38 0 0 1 6.75-9.1.76.76 0 0 0 -.42-1.31 4.08 4.08 0 0 0 -3.86 1.64 77.23 77.23 0 0 0 -5.15 9 15.09 15.09 0 0 1 -6.23 6.77c-.62.4-3.68 1.62-1.93-2.44a36 36 0 0 1 3.31-6.56c1.15-1.69-.63-3.28-2.13-1.53-.25.29-3.1 4.41-5.55 7.55-2 2.56-3.41 3.75-4.69 3.38-.7-.21-.84-1.66-.07-3.57a19.09 19.09 0 0 1 7.35-9c2-1.27 4.68-2 6.92-.11a.37.37 0 0 0 .57-.46 3.21 3.21 0 0 0 -1.25-1.32zm5.47 14.52c-1.36.32-2-.6-1.22-2.19 2.53-4.68 3.17-4.91 7-8.81 3-3.06 4.76-2.4 4.66-1.37-.39 4.68-5.94 11.32-10.44 12.38zm23.51-18a4.21 4.21 0 0 0 -4.46 2.31c-1.49 2.52-3 4.91-4.34 7.5-3.52 6.65-6.13 13.12-6.9 20.7-.19 1.85.48 3 2.84 2.85a.38.38 0 0 0 .14-.71 1.83 1.83 0 0 1 -1-2 33.07 33.07 0 0 1 3.49-12.59c1.25 2.22 4.35 2 6.78.69 3-1.62 8.53-6.84 9.15-12.06.16-2.43-.31-3.22-2-3.56-2.15-.43-4.05 1-5.46 2.28a50.35 50.35 0 0 0 -4.67 5.14s3-6.27 6.75-9.16a.75.75 0 0 0 -.32-1.34zm-4.87 16.88c-2.57 1.66-5.72 1.91-3-2.56a54 54 0 0 1 6.46-7.37c3.62-3.37 5-2.58 4.53-.65-1.08 4.9-4.93 8.63-7.99 10.58zm35.75-19.48c0-.68-1.54-1.64-2.11-1.35a5.23 5.23 0 0 0 -2.26 3.28c-.15.81 1.73 1.19 2.53 1s1.93-2.12 1.88-2.93z" fill="#323333"/></svg>