<svg xmlns="http://www.w3.org/2000/svg" viewBox="0 0 230 100"><path d="M73.45 53.29A7.61 7.61 0 0 0 73 52c-1.38-2.84-4.36-4.89-8.14-6-.72-6.67-3.13-14-9.67-17.6a13.17 13.17 0 0 0-8.31-1.2l3.34 2.62S38.58 38.85 35.74 41a11.31 11.31 0 0 1-2.29 1.64l1.14 2.07a28.62 28.62 0 0 0 11.59 1 9.52 9.52 0 0 1 1.94-.15 10.86 10.86 0 0 1-.06 1.1l-.26.09c-.48.17-1 .34-1.44.53h-.08l-.92.37h-.06c-.49.22-1 .44-1.43.68l-.2.1c-.45.22-.88.46-1.31.71l-.25.15c-.4.23-.79.48-1.17.73l-.31.21c-.35.24-.7.48-1 .73l-.35.28c-.3.24-.61.48-.89.73l-.39.35c-.26.24-.52.48-.76.72s-.26.28-.39.42-.44.47-.64.7l-.39.5c-.18.22-.36.45-.52.67s-.24.38-.36.57-.28.43-.4.65-.22.42-.33.64-.2.4-.29.61-.18.48-.26.72-.14.37-.2.55-.13.57-.18.85-.08.31-.1.46a8.47 8.47 0 0 0 0 2.53C34.2 70.86 45.39 75 58 71.25a34.14 34.14 0 0 0 4.31-1.64c8.52-3.91 12.83-10.7 11.14-16.32zm-9.57 8.64a22.58 22.58 0 0 1-2.3 1.46l-.48.26-.49.25-1.1.52-.16.08a29.17 29.17 0 0 1-3 1.12h-.15q-.9.28-1.8.51h-.24c-.56.13-1.12.25-1.67.35h-.09a26.83 26.83 0 0 1-3.59.37h-1.87c-.47 0-.93-.06-1.38-.11h-.12a15.25 15.25 0 0 1-5.11-1.49l-.05-.14a6.92 6.92 0 0 1-1.26-3.66v-.48A17 17 0 0 1 46.24 54a114.57 114.57 0 0 1-4.54 10.91c8.3 2.62 18.69-.91 22.51-4.75.22-.17.17-.17.17-.17a.75.75 0 0 1-.07-.12 47.31 47.31 0 0 0 .74-7.48 4.87 4.87 0 0 1 2.19 2.9 14.8 14.8 0 0 1-3.36 6.64zm33.34-9.75a10.84 10.84 0 0 1-3.34 1.26 13.15 13.15 0 0 1-3.55.38 11.24 11.24 0 0 1-4-.71 9.42 9.42 0 0 1-3.11-2 9.6 9.6 0 0 1-2.08-3.06 10.71 10.71 0 0 1-.76-3.88 10.08 10.08 0 0 1 .76-4 9.71 9.71 0 0 1 2.08-3.06 9.45 9.45 0 0 1 3.22-2 10.74 10.74 0 0 1 3.94-.71 12.42 12.42 0 0 1 3.49.5 6.61 6.61 0 0 1 3 1.85l-1.59 1.7A5.85 5.85 0 0 0 93 37a8 8 0 0 0-5.63.11 9.68 9.68 0 0 0-2.46 1.53A7.65 7.65 0 0 0 83.39 41a8.48 8.48 0 0 0-.54 3.06 7.39 7.39 0 0 0 .6 3.06 8.17 8.17 0 0 0 1.47 2.41 8.74 8.74 0 0 0 2.41 1.58 7.59 7.59 0 0 0 3.11.55 10.64 10.64 0 0 0 2.35-.28 8.06 8.06 0 0 0 2.21-.79v-5.46h-4.23v-2h6.45v9.07zm3.49-4.86a6.88 6.88 0 0 1 .5-2.57 7.18 7.18 0 0 1 1.36-2 5.54 5.54 0 0 1 2.08-1.32 7.71 7.71 0 0 1 5.19 0 6 6 0 0 1 3.44 3.34 6.59 6.59 0 0 1 0 5.19 5.92 5.92 0 0 1-3.44 3.33 7.71 7.71 0 0 1-5.19 0 5.52 5.52 0 0 1-2.08-1.29 6.21 6.21 0 0 1-1.36-2 7 7 0 0 1-.5-2.68zm2.19 0a6.21 6.21 0 0 0 .27 1.74 4.31 4.31 0 0 0 .88 1.43 4 4 0 0 0 3.17 1.31 4.18 4.18 0 0 0 3.11-1.31 3.63 3.63 0 0 0 .88-1.43 4.6 4.6 0 0 0 .27-1.74 7 7 0 0 0-.27-1.81 3.59 3.59 0 0 0-.88-1.42 4.09 4.09 0 0 0-1.36-1 4.72 4.72 0 0 0-1.75-.32 5.28 5.28 0 0 0-1.81.32 5.07 5.07 0 0 0-1.36 1 3.59 3.59 0 0 0-.88 1.42 7 7 0 0 0-.27 1.81zm14.21-13.5h2v19.56h-2zm16.23 17.43a5.67 5.67 0 0 1-1.86 1.75 5.85 5.85 0 0 1-2.9.71 7 7 0 0 1-2.4-.44 6.92 6.92 0 0 1-2-1.31 6.05 6.05 0 0 1-1.25-2 7.14 7.14 0 0 1 0-5 5.13 5.13 0 0 1 1.36-2 5.2 5.2 0 0 1 2-1.31 7.16 7.16 0 0 1 2.62-.49 6.11 6.11 0 0 1 2.41.49 5.85 5.85 0 0 1 2 1.53v-9.31h2v19.57h-2v-2.19zm0-3.93a6.63 6.63 0 0 0-.28-1.81 4.09 4.09 0 0 0-.87-1.42 4 4 0 0 0-1.37-1 4.13 4.13 0 0 0-4.91 1 3.48 3.48 0 0 0-.88 1.42 7 7 0 0 0-.27 1.81 6.21 6.21 0 0 0 .27 1.74 4 4 0 0 0 2.24 2.41 4.94 4.94 0 0 0 3.55 0 4 4 0 0 0 1.37-1 3.5 3.5 0 0 0 .87-1.43 5.87 5.87 0 0 0 .28-1.72zm16.72 3.88a6.44 6.44 0 0 1-2.4 2 8.39 8.39 0 0 1-3.07.6 6.85 6.85 0 0 1-2.56-.49 7.29 7.29 0 0 1-2-1.36 6.9 6.9 0 0 1-1.2-2 7.51 7.51 0 0 1-.39-2.45 8.25 8.25 0 0 1 .44-2.57 5.54 5.54 0 0 1 1.31-2 7.13 7.13 0 0 1 2-1.31 6.74 6.74 0 0 1 2.51-.43 6.89 6.89 0 0 1 2.35.38 5.27 5.27 0 0 1 3.06 3.28 7.63 7.63 0 0 1 .39 2.73v.66h-9.89a4.37 4.37 0 0 0 .38 1.47 6.29 6.29 0 0 0 .87 1.26 5 5 0 0 0 1.2.87 3.1 3.1 0 0 0 1.53.28 6.39 6.39 0 0 0 2.25-.44 5.86 5.86 0 0 0 1.69-1.37zm-1.8-5a3.51 3.51 0 0 0-1-2.46 3.67 3.67 0 0 0-2.63-.93 4.14 4.14 0 0 0-2.78.93 4 4 0 0 0-1.26 2.46zm5.35-2a6.52 6.52 0 0 0 0-1.53 11.48 11.48 0 0 1-.05-1.31h1.91v2h.05a4.76 4.76 0 0 1 .55-.87 5.77 5.77 0 0 1 .93-.77 4.2 4.2 0 0 1 1.15-.49 5.74 5.74 0 0 1 1.36-.16 6.9 6.9 0 0 1 2.08.32 3.3 3.3 0 0 1 1.42 1 5.27 5.27 0 0 1 .87 1.53 7.94 7.94 0 0 1 .28 2v7.49h-2v-7.24a3.82 3.82 0 0 0-.71-2.41 2.52 2.52 0 0 0-2.08-.87 4.73 4.73 0 0 0-1.75.33 2.56 2.56 0 0 0-1.15 1 5.6 5.6 0 0 0-.71 1.48 5.76 5.76 0 0 0-.22 1.91v5.9h-2l.11-9.29zm13.77 9.07v-.22a4.24 4.24 0 0 0 1.2-.32 3.43 3.43 0 0 0 1-.71.63.63 0 0 0 .16-.44 2 2 0 0 1 .11-.71 2.07 2.07 0 0 0 .06-.82V37.86a4.25 4.25 0 0 0-.06-.87 3.41 3.41 0 0 0-.11-.77 1.29 1.29 0 0 0-.22-.49 1.55 1.55 0 0 0-.93-.65 10.4 10.4 0 0 0-1.2-.28v-.27h7.82v.27c-.33.06-.77.17-1.15.28a1.55 1.55 0 0 0-1 .81 1.83 1.83 0 0 0-.22 1.1 8.72 8.72 0 0 1-.06 1.25v12.68a2 2 0 0 0 .28 1 2.66 2.66 0 0 0 1 .71 8.63 8.63 0 0 0 1.2.27v.22h-7.81zm28.75-5.63A9.16 9.16 0 0 1 194 50.7a9.84 9.84 0 0 1-3.11 2 11.39 11.39 0 0 1-3.77.71 9.62 9.62 0 0 1-3.72-.71 9 9 0 0 1-3.11-2 10.54 10.54 0 0 1-2.13-3 10.14 10.14 0 0 1 0-7.87 8.55 8.55 0 0 1 2.19-3 10 10 0 0 1 3.26-1.83 11.47 11.47 0 0 1 3.83-.66 9.17 9.17 0 0 1 4 .77 9.59 9.59 0 0 1 3 2.07 10.76 10.76 0 0 1 1.91 3 9.88 9.88 0 0 1 .66 3.55 10.8 10.8 0 0 1-.88 3.91zm-2.85-7a11.3 11.3 0 0 0-1.2-2.95 7.45 7.45 0 0 0-2.08-2.07 5.48 5.48 0 0 0-2.9-.82 5.63 5.63 0 0 0-3 .82 6.68 6.68 0 0 0-2 2.08 9.68 9.68 0 0 0-1.1 2.95 13.66 13.66 0 0 0-.38 3.33 14.16 14.16 0 0 0 .38 3.39 8 8 0 0 0 1.26 2.9 7.24 7.24 0 0 0 2.07 2 5.7 5.7 0 0 0 5.79-.06 6.68 6.68 0 0 0 2-2.07 11.8 11.8 0 0 0 1.2-2.95 11.19 11.19 0 0 0 .38-3.28 16 16 0 0 0-.42-3.26zM92.9 60.92c-.05.17-.16.28-.33.22a.24.24 0 0 1-.22-.22c0-.54-.27-.93-.76-.93h-2c-.44 0-.77.28-.77.93v2.95c0 .55.28.93.77.93h2c.44 0 .76-.33.76-.93v-1.2h-1.74a.28.28 0 1 1 0-.55h2a.25.25 0 0 1 .27.22v1.48a1.29 1.29 0 0 1-1.26 1.36h-2.05a1.29 1.29 0 0 1-1.26-1.31v-3a1.29 1.29 0 0 1 1.2-1.37h2.08a1.36 1.36 0 0 1 1.31 1.42zm1.37 1.2a1.15 1.15 0 0 1 1-1h1.26a1.07 1.07 0 0 1 1 1v2a1 1 0 0 1-1 1.09H95.3a1 1 0 0 1-1-1v-2.09zm.54 0v2c0 .38.11.6.44.6h1.26c.32 0 .49-.17.49-.6v-2a.48.48 0 0 0-.49-.54h-1.26c-.25-.06-.44.16-.44.54zM99 59.45c0-.17.16-.28.32-.22a.24.24 0 0 1 .22.22v4.64c0 .38.17.6.49.6a.28.28 0 1 1 0 .55 1 1 0 0 1-1-1v-4.79zm6 1.86V65c0 .16-.17.21-.28.21h-2a1 1 0 0 1-1-1v-2.14a1.18 1.18 0 0 1 1-1h1.75v-1.62a.28.28 0 1 1 .55 0zm-.55.21h-1.75c-.27 0-.44.22-.44.55v2c0 .38.11.6.44.6h1.75zm1.91 1.64v-1a1.16 1.16 0 0 1 1-1h1.37a1.08 1.08 0 0 1 1 1v1c0 .17-.17.22-.28.22h-2.57v.77c0 .32.17.6.5.6h1.36c.33 0 .44-.22.44-.6.05-.17.16-.28.33-.22a.24.24 0 0 1 .22.22 1 1 0 0 1-1 1.09h-1.42a1 1 0 0 1-1-1v-1zm.55-.27h2.35v-.77c0-.38-.16-.54-.49-.54h-1.37a.59.59 0 0 0-.55.49v.11c.04 0 .04.71.04.71zM111.7 65a.26.26 0 0 1-.27.27.26.26 0 0 1-.28-.27v-2.9a1.17 1.17 0 0 1 1-1h1.26a1.08 1.08 0 0 1 1 1V65a.26.26 0 0 1-.28.27.26.26 0 0 1-.27-.27v-2.9c0-.33-.17-.55-.44-.55h-1.26c-.27 0-.43.22-.43.55V65zm4.21-3.66c0-.33.6-.33.6 0V65a.26.26 0 0 1-.28.27.26.26 0 0 1-.23-.27v-3.69zm.27-1.15a.26.26 0 0 1-.27-.28.26.26 0 0 1 .27-.27.26.26 0 0 1 .27.27.26.26 0 0 1-.27.25zm1.69 2a1.17 1.17 0 0 1 1-1h1.26a1.08 1.08 0 0 1 1 1v2a1 1 0 0 1-1 1.09h-1.31a1 1 0 0 1-1-1v-2.16zm.55 0v2c0 .38.11.6.44.6h1.25c.33 0 .44-.17.44-.6v-2c0-.32-.16-.54-.44-.54h-1.25c-.28-.13-.44.09-.44.47zm9.4-2.67h2c.16-.06.27 0 .33.22s-.06.27-.22.32h-1.86v5a.26.26 0 0 1-.27.27.25.25 0 0 1-.27-.27V60h-1.73c-.17.06-.28-.05-.33-.22s0-.27.22-.32h2.13zm3.66 3.71v-1a1.15 1.15 0 0 1 1-1h1.36a1.07 1.07 0 0 1 1 1v1c0 .17-.16.22-.27.22H132v.77c0 .32.17.6.49.6h1.37c.33 0 .44-.22.44-.6.05-.17.16-.28.32-.22a.24.24 0 0 1 .22.22 1 1 0 0 1-1 1.09h-1.37a1 1 0 0 1-1-1v-1zm.6-.27h2.35v-.77c0-.38-.16-.54-.44-.54h-1.31c-.33 0-.49.22-.49.54l-.11.77zm7.54-.77c-.05.17-.16.28-.33.22a.24.24 0 0 1-.21-.22c0-.38-.17-.54-.5-.54h-1.25c-.28 0-.44.22-.44.54v2.01c0 .38.11.55.44.55h1.31c.27 0 .44-.17.44-.55s.6-.33.6 0a1.07 1.07 0 0 1-1 1.09h-1.36a1 1 0 0 1-1-1v-2.17a1.15 1.15 0 0 1 1-1h1.25a1 1 0 0 1 1.05 1zm1.91-.92a1.24 1.24 0 0 1 .44-.11h1.26a1.07 1.07 0 0 1 1 1V65c0 .33-.6.33-.6 0v-2.82c0-.33-.17-.55-.44-.55h-1.31c-.28 0-.44.22-.44.55v2.9c0 .32-.6.32-.6 0V59.5c0-.33.6-.33.6 0zm4.7 3.77c0 .16-.16.27-.32.21a.23.23 0 0 1-.22-.21v-2.9a1.16 1.16 0 0 1 1-1H148a1.07 1.07 0 0 1 1 1V65c-.05.16-.16.27-.33.21a.23.23 0 0 1-.22-.21v-2.9c0-.33-.16-.55-.49-.55h-1.25c-.28 0-.44.22-.44.55zm4.16-2.85a1.15 1.15 0 0 1 1-1h1.25a1.07 1.07 0 0 1 1 1v2a1 1 0 0 1-1 1.09h-1.31a1 1 0 0 1-1-1v-2.16zm.6 0v2c0 .38.11.6.49.6h1.26c.33 0 .49-.17.49-.6v-2c0-.32-.16-.54-.49-.54h-1.26c-.33-.13-.48.09-.48.47zm4.1-2.67a.27.27 0 1 1 .54 0v4.64c0 .38.17.6.44.6a.26.26 0 0 1 .27.28.26.26 0 0 1-.27.27 1 1 0 0 1-1-1v-4.86zm2.67 2.67a1.17 1.17 0 0 1 1-1h1.26a1.07 1.07 0 0 1 1 1v2a1 1 0 0 1-1 1.09h-1.22a1 1 0 0 1-1-1v-2.16zm.55 0v2c0 .38.11.6.49.6h1.26c.33 0 .44-.17.44-.6v-2c0-.32-.17-.54-.44-.54h-1.26c-.33-.13-.49.09-.49.47zM163.5 67a.27.27 0 1 1 0-.54h1.31a.49.49 0 0 0 .44-.55v-.6h-1.75a1 1 0 0 1-1-1v-2.24a1.18 1.18 0 0 1 1-1h2a.32.32 0 0 1 .28.17v4.59a1.16 1.16 0 0 1-1 1h-1.28zm1.7-2.18v-3.3h-1.75c-.28 0-.44.22-.44.55v2.08c0 .38.11.54.44.54zm5-3.72c.11 0 .27.11.27.22v.11L169.08 65c-.28 1-.77 1.86-1.26 1.86h-.38a.28.28 0 1 1 0-.55h.32c.17 0 .5-.49.77-1.42l-1.37-3.6c-.11-.28.39-.44.5-.17l1.14 3 1.15-3a.46.46 0 0 1 .22-.12zm5.3-1.26c0-.32.6-.32.6 0v5h3a.25.25 0 0 1 .27.28.25.25 0 0 1-.27.27h-3.3a.25.25 0 0 1-.28-.22v-5.4zm5.85 1.75v2.63c0 .32.11.54.32.54h.5a.26.26 0 0 1 .27.28.26.26 0 0 1-.27.27h-.5a1.07 1.07 0 0 1-.92-1.09v-2.7h-.06a.27.27 0 1 1 0-.54h.06v-1.53c.05-.17.16-.28.32-.22a.24.24 0 0 1 .22.22V61h.49a.27.27 0 1 1 0 .54zm5.52-.21V65c0 .16-.17.27-.28.21h-2a1 1 0 0 1-1-1v-2.14a1.17 1.17 0 0 1 1-1h1.75v-1.62c.05-.17.16-.28.33-.22a.24.24 0 0 1 .22.22zm-.61.21h-1.74c-.28 0-.44.22-.44.55v2c0 .38.11.6.44.6h1.74zm2.57 3.72a.26.26 0 0 1-.27-.27.26.26 0 0 1 .27-.28c.36-.01.36.48-.03.48z" fill="#323333"/></svg>