<svg viewBox="0 0 230 100" xmlns="http://www.w3.org/2000/svg"><path d="m59.49 24a8 8 0 1 0 8 8 8 8 0 0 0 -8-8zm0 11.38a3.44 3.44 0 1 1 3.44-3.44 3.44 3.44 0 0 1 -3.44 3.44zm20.51 20.26h-8.5v-4.18h8.5zm-28.34-12.7v20.48h15.93v-20.48zm10.85 15.4h-6.09v-10.63h6.09zm35.61-10.34h-8.63v15.4h-5.13v-15.4h-8.62v-5.11h22.38zm25.35 22-12.17-15.36h5.61a3 3 0 0 0 3-3v-.64a3 3 0 0 0 -3-3h-9.48v15.42h-5.13v-20.48h16.35a6.85 6.85 0 0 1 6.83 6.83v1.43a6.83 6.83 0 0 1 -5.66 6.72l9.52 12.08zm28.73-27.1v12.85a8.52 8.52 0 0 1 -8.52 8.41h-5.68a8.52 8.52 0 0 1 -8.52-8.41v-12.81h5.45v11.91a4.49 4.49 0 0 0 4.49 4.5h2.86a4.49 4.49 0 0 0 4.5-4.5v-11.91zm26.3 20.75h-12.59a9.92 9.92 0 0 1 -9.9-9.9v-.53a10.39 10.39 0 0 1 10.37-10.37h12.07v4.87h-12.23a5.51 5.51 0 0 0 0 11h12.28zm-4.71-7.94h-8.79v-4.19h8.84z" fill="#323333"/></svg>