<svg xmlns="http://www.w3.org/2000/svg" viewBox="0 0 230 100"><path d="M44.25 34.84a16.93 16.93 0 1 0 17.24 16.93 17.1 17.1 0 0 0-17.24-16.93zM50.46 58a5.92 5.92 0 0 1-3-1 15.85 15.85 0 0 1-1.93-1.82l-.32-.33 1.5-1.85.11.1a11.76 11.76 0 0 0 1.93 2 3.07 3.07 0 0 0 1.6.64A3.86 3.86 0 0 0 53 54.55a3.75 3.75 0 0 0-2.68-6.42 3.3 3.3 0 0 0-1.39.53 11.7 11.7 0 0 0-1.71 1.5c-.33.32-1.08 1.29-1.83 2.25s-1.25 1.71-1.39 1.82A17 17 0 0 1 41.25 57a5.92 5.92 0 0 1-3 1 6.11 6.11 0 1 1 0-12.21 5.92 5.92 0 0 1 3 1 16.62 16.62 0 0 1 1.93 1.82l.1.22.11.11-1.5 1.92-.11-.1a9.52 9.52 0 0 0-2.14-2 2.58 2.58 0 0 0-1.39-.76 3.86 3.86 0 0 0-2.68 1.18 3.88 3.88 0 0 0 0 5.35 3.48 3.48 0 0 0 2.68 1.18 4.27 4.27 0 0 0 1.5-.53 11.16 11.16 0 0 0 1.5-1.5c.32-.33 1.07-1.29 1.82-2.25s1.28-1.72 1.39-1.82a17.07 17.07 0 0 1 2.79-2.79 5.49 5.49 0 0 1 3-1 6.87 6.87 0 0 1 6.53 6A6.36 6.36 0 0 1 50.46 58zm25.39 2a12.12 12.12 0 0 1-3.85-.63 9.51 9.51 0 0 1-3.43-2l2.25-2.57a14.73 14.73 0 0 0 2.36 1.5 7.48 7.48 0 0 0 2.68.53 3 3 0 0 0 1.82-.43 1.33 1.33 0 0 0 .64-1.17 1.36 1.36 0 0 0-.11-.65 1.21 1.21 0 0 0-.53-.53 5.58 5.58 0 0 0-1.07-.43 16.33 16.33 0 0 0-1.72-.54c-.85-.21-1.6-.43-2.35-.64a4.94 4.94 0 0 1-1.82-1 3.74 3.74 0 0 1-1.18-1.4 4.06 4.06 0 0 1-.43-2 4.12 4.12 0 0 1 .43-2 6 6 0 0 1 1.18-1.6 8.31 8.31 0 0 1 1.92-1.08A8.76 8.76 0 0 1 75.1 43a11.51 11.51 0 0 1 3.42.54 7.69 7.69 0 0 1 2.9 1.61l-1.93 2.78a7.87 7.87 0 0 0-2.25-1.18A5.62 5.62 0 0 0 75 46.3a2.24 2.24 0 0 0-1.61.43 1.5 1.5 0 0 0-.53 1.07 1.66 1.66 0 0 0 .1.75 1.34 1.34 0 0 0 .54.54 3.11 3.11 0 0 0 1.18.43c.43.11 1.07.32 1.82.53a15.91 15.91 0 0 1 2.36.75 12.39 12.39 0 0 1 1.71 1 4.29 4.29 0 0 1 1.07 1.39 5.1 5.1 0 0 1 .36 1.9 4.84 4.84 0 0 1-.43 2.25 4.7 4.7 0 0 1-1.28 1.6 5.56 5.56 0 0 1-1.93 1c-.75 0-1.61.11-2.46.11M83 42.34h3.75v6.43a4.55 4.55 0 0 1 .65-.75 5.09 5.09 0 0 1 .85-.64 3 3 0 0 1 1.09-.38 4 4 0 0 1 1.29-.22A4.44 4.44 0 0 1 94 48a5.2 5.2 0 0 1 1.18 3.53v8.27h-3.8v-7.18a3.09 3.09 0 0 0-.54-1.92 2.57 2.57 0 0 0-3.42 0 2.59 2.59 0 0 0-.65 1.92v7.18H83V42.34M103.16 60a6.88 6.88 0 0 1-6.53-4 7.45 7.45 0 0 1-.54-2.58 6.51 6.51 0 0 1 .54-2.57 7.06 7.06 0 0 1 1.5-2.14 6.08 6.08 0 0 1 2.25-1.39 7.45 7.45 0 0 1 5.57 0 8.27 8.27 0 0 1 2.25 1.39 7.84 7.84 0 0 1 1.5 2.14 7.43 7.43 0 0 1 .53 2.57 6.52 6.52 0 0 1-.53 2.58 6.11 6.11 0 0 1-1.5 2.14 6.25 6.25 0 0 1-2.2 1.34 5.91 5.91 0 0 1-2.84.52zm0-3.11a3 3 0 0 0 1.4-.32 4.29 4.29 0 0 0 1.07-.75 2.23 2.23 0 0 0 .64-1.07 5.35 5.35 0 0 0 .21-1.4 6.16 6.16 0 0 0-.21-1.39 4 4 0 0 0-.75-1.07 3.74 3.74 0 0 0-1.07-.75 3.2 3.2 0 0 0-2.79 0 3.74 3.74 0 0 0-1.07.75A2.23 2.23 0 0 0 100 52a5.33 5.33 0 0 0-.22 1.39 6.18 6.18 0 0 0 .22 1.4 7 7 0 0 0 .7 1.21 4 4 0 0 0 1.07.75 6.68 6.68 0 0 0 1.39.16zm8.36-10h3.75v1.82a5.46 5.46 0 0 1 1.6-1.5 4.44 4.44 0 0 1 2.47-.54 5.62 5.62 0 0 1 2.25.43 6.05 6.05 0 0 1 1.93 1.29 6.56 6.56 0 0 1 1.28 2 7.66 7.66 0 0 1 .54 2.79 7.17 7.17 0 0 1-.54 2.78 6.73 6.73 0 0 1-1.28 2 6.19 6.19 0 0 1-1.93 1.28 6.06 6.06 0 0 1-4.72-.1 6.85 6.85 0 0 1-1.6-1.4v5.47h-3.75zm6.85 10a5.79 5.79 0 0 0 1.29-.21 3.41 3.41 0 0 0 1.61-1.83 3.44 3.44 0 0 0 .21-1.5 5.8 5.8 0 0 0-.21-1.39 11.38 11.38 0 0 0-.65-1.18 6.28 6.28 0 0 0-1-.75 2.57 2.57 0 0 0-1.29-.21 4.89 4.89 0 0 0-1.28.21 2.44 2.44 0 0 0-1 .75 2.16 2.16 0 0 0-.64 1.18 3.23 3.23 0 0 0-.21 1.39 7 7 0 0 0 .21 1.5 5.29 5.29 0 0 0 .64 1.08 6.87 6.87 0 0 0 1 .75 4.89 4.89 0 0 0 1.32.23zm8.14-10h3.75v1.82a4.55 4.55 0 0 1 .65-.75 5.09 5.09 0 0 1 .85-.64 3.08 3.08 0 0 1 1.07-.43 5.28 5.28 0 0 1 1.29-.22 5 5 0 0 1 2.25.54 4.07 4.07 0 0 1 1.5 1.5 5.29 5.29 0 0 1 1.93-1.5 5.86 5.86 0 0 1 2.35-.54 4.38 4.38 0 0 1 3.22 1.18 4.84 4.84 0 0 1 1.18 3.54v8.41h-3.75v-7.18a3.16 3.16 0 0 0-.54-1.92 2.18 2.18 0 0 0-1.61-.65 1.86 1.86 0 0 0-1.6.65 2.59 2.59 0 0 0-.64 1.92v7.18h-3.75v-7.18a3.16 3.16 0 0 0-.54-1.92 2 2 0 0 0-1.61-.65 1.86 1.86 0 0 0-1.6.65 2.59 2.59 0 0 0-.65 1.92v7.18h-3.75V47m25.39 13a8.06 8.06 0 0 1-1.71-.22 4.15 4.15 0 0 1-1.39-.75 3.39 3.39 0 0 1-1-1.18 4.49 4.49 0 0 1-.32-1.71 3.28 3.28 0 0 1 .43-1.82 3.08 3.08 0 0 1 1.09-1.27 5.27 5.27 0 0 1 1.71-.75 7.15 7.15 0 0 1 2.15-.21 7.9 7.9 0 0 1 1.71.11 7.65 7.65 0 0 1 1.5.42v-.21a1.86 1.86 0 0 0-.75-1.71 3 3 0 0 0-2.14-.65 9.42 9.42 0 0 0-1.93.22 14.13 14.13 0 0 0-1.71.53l-1-2.78a18 18 0 0 1 2.25-.75 10.29 10.29 0 0 1 2.79-.32 8.22 8.22 0 0 1 2.57.32 5.07 5.07 0 0 1 1.85 1.07 3.62 3.62 0 0 1 1.07 1.71 8 8 0 0 1 .32 2.36v7.39h-3.64v-1.39a4.58 4.58 0 0 1-1.61 1.18 6 6 0 0 1-2.24.41zm1.18-2.58a3.37 3.37 0 0 0 2.14-.64 1.91 1.91 0 0 0 .75-1.6v-.65c-.32-.1-.64-.21-1.07-.32a5.08 5.08 0 0 0-1.28-.11 3.68 3.68 0 0 0-1.93.43 1.52 1.52 0 0 0-.64 1.29 1.54 1.54 0 0 0 .53 1.18 2.28 2.28 0 0 0 1.5.44zM165.61 60a6.22 6.22 0 0 1-1.5-.22 2.6 2.6 0 0 1-1.17-.64 2.14 2.14 0 0 1-.75-1.18 4.52 4.52 0 0 1-.33-1.82v-6.09h-1.6V47h1.6v-3.37h3.75V47h3.11v3.1h-3.11v5.47c0 .85.43 1.28 1.18 1.28a3.43 3.43 0 0 0 1.82-.43v2.9a6.94 6.94 0 0 1-1.28.53 8.15 8.15 0 0 1-1.72.22M170 42.34h3.85v3.21H170zm.1 4.61h3.75V59.8h-3.75zM181.47 60a7 7 0 0 1-2.68-.54 6.15 6.15 0 0 1-2.14-1.39 5.85 5.85 0 0 1-1.4-2.14 7 7 0 0 1-.53-2.58 7.43 7.43 0 0 1 .53-2.57 7.55 7.55 0 0 1 1.4-2.14 5.66 5.66 0 0 1 2.14-1.39 7.6 7.6 0 0 1 2.78-.54 8.55 8.55 0 0 1 3.11.54 6.23 6.23 0 0 1 2.14 1.61l-2.25 2.35a10.23 10.23 0 0 0-1.28-1.07 3.73 3.73 0 0 0-1.72-.43 2.92 2.92 0 0 0-1.28.32 2.34 2.34 0 0 0-1 .75 2.22 2.22 0 0 0-.65 1.07 4.74 4.74 0 0 0 0 2.79 4.07 4.07 0 0 0 .65 1.18 4 4 0 0 0 1.07.75 3 3 0 0 0 1.39.32 3.66 3.66 0 0 0 1.61-.32 5.76 5.76 0 0 0 1.39-1l2.14 2.15a10.79 10.79 0 0 1-2.14 1.71 10.35 10.35 0 0 1-3.32.54m-2.68-23.68l.75 1.61 1.82.21-1.29 1.29.33 1.71-1.61-.85-1.61.85.32-1.71-1.28-1.29L178 38l.75-1.61m-17.35-5l1.17 2.35 2.58.33-1.93 1.82.43 2.57-2.36-1.18-2.29 1.1.43-2.57-1.96-1.81 2.57-.33 1.4-2.35m28.28 17.14V44h1.6v-.54h-3.75V44h1.61v4.5zm7.28 0v-5h-.86l-1.5 3.86-1.64-3.91h-.86v5h.64v-4.25l1.72 4.18h.21l1.71-4.18v4.29z" fill="#323333"/></svg>