<svg xmlns="http://www.w3.org/2000/svg" viewBox="0 0 230 100"><path d="M125.87 34.34a4.53 4.53 0 0 0-1.34-.24 1.88 1.88 0 0 0-1 .24.76.76 0 0 0-.38.67.88.88 0 0 0 .27.65 2 2 0 0 0 .65.43c.27.11.63.23 1.09.37a12.23 12.23 0 0 1 1.56.56 2.88 2.88 0 0 1 1 .83 2.27 2.27 0 0 1 .43 1.45 2.45 2.45 0 0 1-.46 1.5 2.86 2.86 0 0 1-1.28 1 4.71 4.71 0 0 1-1.86.34 6 6 0 0 1-2.15-.41 6.25 6.25 0 0 1-1.82-1.09l.75-1.53a5.62 5.62 0 0 0 1.6 1 4.26 4.26 0 0 0 1.65.38 2.12 2.12 0 0 0 1.18-.29.91.91 0 0 0 .43-.79.9.9 0 0 0-.26-.66 2 2 0 0 0-.67-.43c-.27-.1-.63-.22-1.1-.36a14.19 14.19 0 0 1-1.56-.55 2.77 2.77 0 0 1-1-.81 2.22 2.22 0 0 1-.43-1.43 2.4 2.4 0 0 1 .44-1.43 2.83 2.83 0 0 1 1.23-1 4.85 4.85 0 0 1 1.85-.33 6.14 6.14 0 0 1 1.8.27 6 6 0 0 1 1.6.72l-.74 1.6a7 7 0 0 0-1.48-.66zm10.6-.72a3.61 3.61 0 0 0-2.74-1h-3.86V42h1.8v-1.47h2.06a3.49 3.49 0 0 0 2.74-1.07 4.26 4.26 0 0 0 1-3 3.93 3.93 0 0 0-1-2.84zm-1.07 4.67a2.17 2.17 0 0 1-1.65.61h-2.08v-4.78h2.08a2.2 2.2 0 0 1 1.65.59 2.4 2.4 0 0 1 .58 1.77 2.52 2.52 0 0 1-.58 1.81zm8-5.69h-1.87l-4.1 9.4h1.87l.62-1.48h5l.62 1.48h1.94zm-2.86 6.4l1.9-4.52 1.87 4.52zM154 34.42a3.22 3.22 0 0 0-3 .09 2.93 2.93 0 0 0-1.14 1.15 3.28 3.28 0 0 0 0 3.21A2.93 2.93 0 0 0 151 40a3.12 3.12 0 0 0 1.6.43 3.29 3.29 0 0 0 1.34-.3 3.87 3.87 0 0 0 1.21-.82l1.06 1.18a5.7 5.7 0 0 1-1.72 1.19 4.9 4.9 0 0 1-4.47-.21 4.72 4.72 0 0 1-1.77-1.75 4.77 4.77 0 0 1-.65-2.45 4.65 4.65 0 0 1 .66-2.44 4.75 4.75 0 0 1 1.79-1.74 5.12 5.12 0 0 1 2.52-.63 5 5 0 0 1 2 .41A4.8 4.8 0 0 1 156.2 34l-1 1.32a3.44 3.44 0 0 0-1.2-.9zm3.86-1.82h6.89v1.58h-5.09v2.32h4.57v1.57h-4.57v2.36h5.25V42h-7zm-30.7 12.83h1.75v9.4h-1.71l-4.83-6.47v6.47h-1.76v-9.4h1.71l4.84 6.49zm3.68 0h6.89V47h-5.09v2.32h4.57v1.58h-4.57v2.36h5.25v1.57h-7zm8.57 0h2.11l2.16 3.09 2.16-3.09H148l-3.16 4.5 3.43 4.9h-2.16l-2.41-3.35-2.37 3.35h-2.13l3.38-4.83zm9.87 0H157V47h-3v7.8h-1.81V47h-2.93zM127 58.88a4.4 4.4 0 0 1 1.75 1.67 4.73 4.73 0 0 1 .63 2.43 4.65 4.65 0 0 1-.64 2.42 4.48 4.48 0 0 1-1.74 1.68 5.35 5.35 0 0 1-2.56.6h-3.84v-9.4h3.91a5.21 5.21 0 0 1 2.49.6zm-.93 6.82a2.79 2.79 0 0 0 1.08-1.1 3.28 3.28 0 0 0 .39-1.61 3.34 3.34 0 0 0-.4-1.61 2.91 2.91 0 0 0-1.11-1.12 3.22 3.22 0 0 0-1.58-.39h-2.08v6.23h2.15a3.11 3.11 0 0 0 1.59-.4zm12.2-6.91a4.8 4.8 0 0 1 1.81 6.63 4.76 4.76 0 0 1-1.81 1.75 5.07 5.07 0 0 1-2.54.64 5.14 5.14 0 0 1-2.55-.64 4.8 4.8 0 0 1-1.8-1.75 4.76 4.76 0 0 1 1.8-6.63 5.24 5.24 0 0 1 2.55-.63 5.17 5.17 0 0 1 2.58.63zm-4.07 1.41a3.2 3.2 0 0 0-1.2 4.39 3.33 3.33 0 0 0 1.16 1.17 3.07 3.07 0 0 0 1.6.43 3 3 0 0 0 1.57-.43 3.2 3.2 0 0 0 1.14-1.17 3.27 3.27 0 0 0 0-3.24 3.07 3.07 0 0 0-1.14-1.15 3 3 0 0 0-1.57-.43 3.07 3.07 0 0 0-1.56.43zm15.49-1.41a4.8 4.8 0 0 1 1.81 6.63 4.76 4.76 0 0 1-1.81 1.75 5.07 5.07 0 0 1-2.54.64 5.14 5.14 0 0 1-2.55-.64 4.8 4.8 0 0 1-1.8-1.75 4.76 4.76 0 0 1 1.8-6.63 5.24 5.24 0 0 1 2.55-.63 5.17 5.17 0 0 1 2.54.63zm-4.11 1.41a3 3 0 0 0-1.17 1.15A3.12 3.12 0 0 0 144 63a3 3 0 0 0 .44 1.62 3.33 3.33 0 0 0 1.16 1.17 3.06 3.06 0 0 0 1.59.43 3 3 0 0 0 1.57-.43 3.15 3.15 0 0 0 1.15-1.17 3.27 3.27 0 0 0 0-3.24 3 3 0 0 0-1.15-1.15 3 3 0 0 0-1.57-.43 3.06 3.06 0 0 0-1.61.4zm16 7.48l-1.25-2.35a3.07 3.07 0 0 0 .75-1 4.84 4.84 0 0 0 .48-2.24 3.89 3.89 0 0 0-1-2.85 3.8 3.8 0 0 0-2.82-1h-3.92v9.4h1.8v-1.5h3.28l.7 1.5zm-6-3.13v-4.79h2.12a2 2 0 0 1 1.56.59 2.63 2.63 0 0 1 .53 1.78 2.71 2.71 0 0 1-.53 1.81 2 2 0 0 1-1.56.61zM90.53 32.42l-15.2 8.85 15.19 8.65V67.5l-15.2 8.85L90.52 85l15.08-8.82V41.1zM60.09 50.08V32.5l15.08-8.82L60.09 15l-15.2 8.85v35.07l15.19 8.66 15.08-8.82-15.07-8.68z" fill="#323333"/></svg>