<svg xmlns="http://www.w3.org/2000/svg" viewBox="0 0 230 100"><path d="M50.65 71.51a10.44 10.44 0 0 1-1.08 2.84l-.84-.54a8.24 8.24 0 0 0 1-2.5zm-1.73-2.57V68h1.14a7.73 7.73 0 0 0-.46-1l.89-.34A10.67 10.67 0 0 1 51 68h1c.16-.44.3-.9.43-1.39l.92.32A8.21 8.21 0 0 1 52.9 68H54v.94h-2v1h1.84v.94H52v3.85h-1v-3.89h-1.91v-.94H51v-1zm2-3.38a6 6 0 0 0-.44-.79l1.07-.17q.2.42.39 1h2v1H49v-1zm2.8 7.54l-.86.32a17 17 0 0 0-.62-2l.85-.22a19.4 19.4 0 0 1 .66 1.9zm4.79-7.39a12.12 12.12 0 0 1-3.08.57V68h3.32v1h-1v5.64h-1V69h-1.29v1.06a8.12 8.12 0 0 1-1.25 4.55l-.73-.76a7.24 7.24 0 0 0 1-3.79v-4.61a10.25 10.25 0 0 0 3.52-.66zm11.46-1a32.11 32.11 0 0 1 2.76 1.92l-.59.78c-.38-.3-.72-.58-1-.81v.63h-2.57v-.4q-.73.6-1.62 1.2l-.59-.83a14.2 14.2 0 0 0 3-2.49zm2.18 9.86h-1v-.38h-2v.39h-.92v-3a8.68 8.68 0 0 1-1.1 3l-.8-.71a7.47 7.47 0 0 0 1.07-4.12v-2h4.63V71h-3.67c0 .21 0 .42-.08.61h3.9zm-3.72-4.77v.45h2.67v-.53h-2.67zm2.66-1.27h-2.66v.52h2.66zm-.12-2a14.07 14.07 0 0 0-1.18-.84c-.25.28-.52.56-.82.84zm.25 6.92v-1h-2v1zm2.11 1.11l-.24-1c.52 0 1 .06 1.49.06a.34.34 0 0 0 .39-.39v-8.48h1v8.73a.94.94 0 0 1-1 1.07zm.76-9.08v6.9h-1v-6.9zm15.36 1.67a9.87 9.87 0 0 0 4.63 6.57l-.68.89a10.87 10.87 0 0 1-4.33-5.54 10.28 10.28 0 0 1-4.46 5.56l-.61-.92a8.48 8.48 0 0 0 4.5-7.29v-1.69h1c.02.95-.01 1.74-.05 2.41zm16.47 7.43l-.24-1h1.59c.27 0 .41-.16.41-.49v-5.51h-.2a12.4 12.4 0 0 1-5.3 5.48l-.54-.87a11.31 11.31 0 0 0 4.81-4.61h-4.6v-1h5.83v-1.86h1v1.88h2.62v1h-2.6v5.8c0 .78-.37 1.17-1.08 1.17zm15.8-9.78c-.08.67-.17 1.31-.26 1.89h1.66v.57a13 13 0 0 1-.85 4.4 10.38 10.38 0 0 1 1 1l-.69.8c-.22-.27-.48-.55-.76-.84a8.2 8.2 0 0 1-1.62 2.06l-.64-.81a7.26 7.26 0 0 0 1.55-2c-.43-.41-.91-.85-1.43-1.3.24-.9.45-1.89.63-3h-.68v-1h.83c.1-.65.18-1.31.27-2zm.45 2.87h-.86a26.65 26.65 0 0 1-.56 2.66l.78.66a11.86 11.86 0 0 0 .64-3.33zm3.08 4.8a8.07 8.07 0 0 1-1.89 1.89l-.58-.76a7.81 7.81 0 0 0 1.81-1.72zm2-6.82v-.95h1v.94h.94v.89h-.94v3.24h-1.57v.82h2.77v.93h-2.77v3.1h-1v-3.1h-2.76v-.93h2.76v-.82h-1.59v-3.24h-1v-.89h1v-.94h1v.94zm0 1.64v-.75h-2.15v.75zm0 .84h-2.15v.79h2.19zm2.28 5.49l-.65.71a12.7 12.7 0 0 0-1.79-1.8l.58-.67a14.12 14.12 0 0 1 1.9 1.75zm13-8.93a15.55 15.55 0 0 0 4.67 3.63l-.55 1a18.19 18.19 0 0 1-1.67-1V69h-5.67v-.79a17.13 17.13 0 0 1-1.71 1.08l-.54-1a15.45 15.45 0 0 0 4.71-3.64zm3.13 10h-1v-.58h-5v.58h-1v-4.52h7zm-1-6.6a14.63 14.63 0 0 1-2.54-2.43 13.89 13.89 0 0 1-2.54 2.34zm0 5v-2h-5v2zm19.57-8v1h-3.93v3.81h4.34v1h-4.34v3.73h-1v-3.72H155v-1h4.25v-3.79h-3.82v-1zM158.1 69l-1 .47a18.91 18.91 0 0 0-1.1-2.38l1-.47a26.22 26.22 0 0 1 1.1 2.38zm5.63-2a13.56 13.56 0 0 1-1.22 2.44l-.93-.48a13.51 13.51 0 0 0 1.21-2.4zm9.17 1.09q1.23-.27 3.4-3.45l1.07.37a19.5 19.5 0 0 1-2.67 3c1.84-.07 3.6-.18 5.32-.35-.35-.51-.7-1-1.06-1.44l.93-.44a32.85 32.85 0 0 1 2.49 3.56l-1 .5c-.26-.45-.51-.87-.76-1.27q-3.37.28-7.52.45zm8.27 6.55h-1v-.44h-5.31v.44h-1v-4.56h7.37zm-1-1.42v-2.16h-5.31v2.18zm-58-21.47c-2 1.12-5.08 1.37-6.34-1.6a18.09 18.09 0 0 1-.87-3.93.17.17 0 0 0-.33 0c-.6 1.85-1.82 5.23-2.58 7.37a29.35 29.35 0 0 1-1.36 3.49 1.67 1.67 0 0 1-2.86-.11 5.44 5.44 0 0 1-.55-2.21s-1.26 1.26-5 2.57c-2.36.73-3.51.22-4.37-1.68a13.41 13.41 0 0 1-.4-1.87 11.16 11.16 0 0 1-4.43 3.82c-2.08.89-4.15-.19-4.19-3.22a31.7 31.7 0 0 1 .7-6.38s-1.61-1.4-2.78-2.27c-1-.7-1.73-1.31-2.25-1.67a.17.17 0 0 0-.25.21c.16.38.29.76.37 1a10.48 10.48 0 0 1-2 10.32 6 6 0 0 1-6.84 1.8 6.53 6.53 0 0 1-2.68-2.84s-.78.72-1 .91a15.81 15.81 0 0 1-10.56 3.7A16.06 16.06 0 0 1 48 52a16.22 16.22 0 0 1-1.43-16.21 15.6 15.6 0 0 1 6.75-7.61 3.71 3.71 0 0 1 4.2 0c1.71 1.09 2.68 2.69 3.64 5.27a41.1 41.1 0 0 1 2.12 8.4s1.57-2.48 2.52-3.67a28.68 28.68 0 0 1 6.48-6l-.43-.63c-.42-.58.05-.77.51-.86 1.85-.39 3.81-.78 5.66-1.15.9-.19 1.9-.4 2.61-.52.27 0 .36.14.24.31-.56.82-3.72 4.56-5 6.18-.75.93-1.11.9-1.61 0a8.18 8.18 0 0 0-.48-.75c-.71.64-1.53 1.38-2.16 2-1.53 1.63-3 3.12-4.35 4.88a20.07 20.07 0 0 0-3.71 8.57c-.22 1.45.55 3.29 1.56 3.65.53.19.65 1-.43 1.17-1.4.18-3.37-1.19-4.08-2.65s-.51-4.15.68-6.44a54.89 54.89 0 0 0-1.12-7.73c-.48-2-1.62-6-3.2-7.3a2.6 2.6 0 0 0-3.53.33 14 14 0 0 0-4.07 7.82 14.5 14.5 0 0 0 2.85 11.33A14.23 14.23 0 0 0 62.88 56a14.53 14.53 0 0 0 9.73-3.14s0-.13-.13-.63a12.19 12.19 0 0 1 .36-6 8.25 8.25 0 0 1 10.7-5.35 13.58 13.58 0 0 1 5.55 3.73c.21.22.87 1 .87 1a14.38 14.38 0 0 1 .76-3 2.78 2.78 0 0 1 2.9-2.18c.95.08 1.31.33 1.16 1.26-.53 3.31-1.07 6.31-1.56 9.55-.17 1.11-.06 2.31.74 2.55s2-.74 2.44-1.67a14.24 14.24 0 0 0 1-3.69c.43-2.29.75-4.32 1.15-6.61a1.63 1.63 0 0 1 1.31-1.31 5 5 0 0 1 1.81 0c.88.16 1.2 1 1 2-.44 2.58-.84 4.43-1.25 7a18.14 18.14 0 0 0-.24 3.12 1.12 1.12 0 0 0 1.58 1.14 12.92 12.92 0 0 0 4.7-2.83s.1-1.21.26-2.18c.44-2.82.6-3.57 1.2-6.17.47-1.72.78-2.3 2-2.24 1 0 1.26.51 1.26 1.11 0 .78 0 3 .07 4a.14.14 0 0 0 .26 0 20 20 0 0 1 1.8-3.29 4 4 0 0 1 2.61-1.81 1.63 1.63 0 0 1 2 1.78c-.07 1-.37 2-.44 3a8.76 8.76 0 0 0 0 2.23 1.46 1.46 0 0 0 1.65 1.12 4.74 4.74 0 0 0 3.71-2.43 11 11 0 0 1 6.29-5.57c1-.27 2.08-.43 2.54.81.18.5 1.09.46 1.52.47 1.37-.08 2 .07 1.8 2.06s-.71 3.65-1 5.54a16.59 16.59 0 0 0-.2 3.22c.06.9.65 1.36 1.47 1a11.18 11.18 0 0 0 4-4 30 30 0 0 1 .13-8.87c-1.18-.19-2.46-.38-3.67-.54-.73-.11-1.16-.42-1.15-1.21s.59-.93 1.18-.95c1.15-.05 4.18 0 4.18 0a40.33 40.33 0 0 1 1.76-6.72 12.72 12.72 0 0 1 3.63-5.58 2.52 2.52 0 0 1 3.68.54c1.61 2.09 1.62 5.26.43 8a24 24 0 0 1-2.4 4.28s2 .14 4.79.17c1.05 0 1.32.29 1.32 1.22a1.43 1.43 0 0 1-1.49 1.5c-1.94 0-6.39-.08-6.39-.08l-2.09 2.68c-.07 2.24-.32 4.78-.2 7s2 3.15 4.25 2.21a22.18 22.18 0 0 0 5.49-3.76 10 10 0 0 1 2.92-7.08 8.57 8.57 0 0 1 9.37-1.22 13.79 13.79 0 0 1 5.16 3.94c.14.16.55.67.78 1a.12.12 0 0 0 .2 0c.15-.74.62-3 .93-4.07.35-1.28.9-1.64 2.17-1.52.64.06.92.35.92 1v2.69c0 .18 0 1 .07 1.51a.07.07 0 0 0 .14 0c.33-.64 1.2-2.31 1.74-3.11a4.26 4.26 0 0 1 2.71-2 1.67 1.67 0 0 1 2.07 1.9 31.35 31.35 0 0 0-.53 4.48c.12 1.11.72 1.84 1.84 1.75 1.41-.11.74.76.3 1a9.92 9.92 0 0 1-3.42.95 1.46 1.46 0 0 1-1.73-1.32c-.16-.65-.4-2.06-.53-2.91a.17.17 0 0 0-.33 0c-.49 1.42-1.67 4.87-2.45 7.07-.19.54-1.1 3.06-1.35 3.57a1.65 1.65 0 0 1-2.8.3 4.75 4.75 0 0 1-.71-2.9 34.45 34.45 0 0 1 .4-5.2c0-.37.11-.71-.15-1A43.92 43.92 0 0 0 166 44a.16.16 0 0 0-.23.2c.15.37.35.87.41 1a10.33 10.33 0 0 1-2.3 10.8c-2.07 2.13-6 2.49-7.89.25a10.35 10.35 0 0 1-1.61-2.79 67.18 67.18 0 0 1-5.91 3.54c-3.41 1.64-5.07.29-6.15-1.15a7.76 7.76 0 0 1-1-2.22 20.34 20.34 0 0 1-2.59 2.68 9.56 9.56 0 0 1-2.45 1.4 2.86 2.86 0 0 1-3.59-1.33c-.29-.47-.59-1.12-.8-1.52a14.51 14.51 0 0 1-2.46 2.14 4.64 4.64 0 0 1-7.43-4c0-.27.1-.87.1-1.23zm-40.71-6.69a1.74 1.74 0 0 0-3-.48c-2.07 2.4-2.41 4.93-2 7.86a2.37 2.37 0 0 0 2.28 2c1.43-.07 2.23-2 2.54-2.78a9.59 9.59 0 0 0 .18-6.6zm82.09 2.58a6.05 6.05 0 0 0-.48-2.46c-.63-1.58-2.13-1.75-3.23-.46a9.54 9.54 0 0 0-1.59 3 7.26 7.26 0 0 0-.19 5 2.51 2.51 0 0 0 2 1.86c1 0 1.75-.91 2.19-1.61a10.75 10.75 0 0 0 1.3-5.33zM132 44.13a.28.28 0 0 0-.28-.34 3.17 3.17 0 0 0-2.06 1 10 10 0 0 0-3.27 7.63c0 .3.2 1.9 1.35 2a2.11 2.11 0 0 0 1.74-1.1c1.25-1.85 1.98-6.5 2.52-9.19zm12.32-5.83l1.13.1s1.83-3.33 2.7-5.47a6.27 6.27 0 0 0 .48-2.61c-.15-1.19-1.09-1.43-1.81-.32a26.13 26.13 0 0 0-2.47 8.3z" fill="#3e3a39"/></svg>