<?xml version="1.0" encoding="utf-8"?>
<svg version="1.1" class="main_logo" xmlns="http://www.w3.org/2000/svg" xmlns:xlink="http://www.w3.org/1999/xlink" x="0px" y="0px" width="120px" viewBox="0 0 120 40" style="enable-background:new 0 0 120 40;" xml:space="preserve">
	<path fill="#E51A3C" d="M11.1,23.2c0,1.5-0.5,2.7-1.6,3.6c-1,0.9-2.5,1.3-4.3,1.3c-0.8,0-1.7-0.1-2.7-0.3v-1.9
		c1.1,0.4,2,0.6,3,0.6c1,0,1.9-0.3,2.5-0.9c0.6-0.6,0.9-1.5,0.9-2.5c0-2.4-1.6-3.5-4.9-3.5c-0.4,0-0.8,0-1.1,0.1v-7.7h8v1.8H4.7v4.1
		c2,0,3.6,0.5,4.7,1.4C10.5,20.2,11.1,21.5,11.1,23.2z M23,16.4h-2.2l-1.4,1.9L18,16.4h-2.3l2.5,3.4l-2.6,3.5h2.2l1.5-2l1.4,2H23
		l-2.6-3.5L23,16.4z M31.6,7.1c-2.4,0-3.5,1.4-3.5,4.1v5.2c0,1.1-0.4,1.8-1.2,1.9c-0.2,0-0.3,0.1-0.4,0.2v2.3l0.1,0c0,0,0.1,0,0.1,0
		c0,0,0.1,0,0.1,0c0.4,0.1,0.7,0.3,0.9,0.6c0.2,0.3,0.3,0.8,0.3,1.4v4.9c0,1.6,0.3,2.7,0.9,3.4c0.6,0.7,1.5,1.1,2.8,1.1h0.9v-2.2
		h-0.4h-0.2c-0.6,0-1-0.1-1.2-0.3c-0.2-0.2-0.3-0.7-0.3-1.4l0-0.6v-4.9c0-0.8-0.1-1.3-0.3-1.8c-0.2-0.4-0.5-0.9-1-1.3
		c0.2-0.2,0.4-0.4,0.5-0.6c0.2-0.2,0.3-0.4,0.4-0.7c0.1-0.3,0.2-0.5,0.2-0.8c0-0.3,0.1-0.6,0.1-1.1v-5c0-1,0.1-1.6,0.2-1.9
		c0.2-0.3,0.6-0.4,1.2-0.4h0.7V7.2c-0.1-0.1-0.3-0.1-0.4-0.1H31.6z M86,20.9h3v-3h-3V20.9z M96.9,12.4l-2.1,0.2v2.1h-1.4v1.6h1.4v6.8
		c0,1.1,0.3,1.9,0.9,2.6s1.4,0.9,2.5,0.9c0.5,0,1-0.1,1.7-0.3v-1.4c-0.4,0.1-0.7,0.1-1,0.1c-1.3,0-1.9-0.8-1.9-2.3v-6.4h3v-1.6h-3
		V12.4z M115.7,14.7l-2.9,9l-2.4-9h-2.1l-2.7,9l-2.5-9h-2l3.3,11.6h2.1l2.8-9l2.5,9h2.1l3.7-11.6H115.7z M83.1,18.6
		C83,18.6,83,18.6,83.1,18.6c-0.5-0.1-0.9-0.4-1-0.6c-0.2-0.3-0.3-0.8-0.3-1.4v-4.9c0-1.6-0.3-2.7-0.9-3.4c-0.6-0.7-1.5-1.1-2.8-1.1
		h-0.9v2.2h0.4h0.2c0.6,0,1,0.1,1.1,0.3c0.2,0.2,0.3,0.7,0.3,1.4l0,0.6v4.9c0,0.7,0.1,1.3,0.2,1.8c0.2,0.4,0.5,0.9,1,1.4
		c-0.4,0.4-0.8,0.8-0.9,1.2c-0.2,0.4-0.3,1-0.3,1.9v5c0,1-0.1,1.6-0.3,1.9c-0.2,0.3-0.6,0.4-1.2,0.4h-0.7v2.2
		c0.1,0.1,0.3,0.1,0.4,0.1h0.5c2.4,0,3.5-1.4,3.5-4.1V23c0-1.1,0.4-1.8,1.2-1.9c0.2,0,0.3-0.1,0.4-0.2v-2.3L83.1,18.6
		C83.1,18.6,83.1,18.6,83.1,18.6z M55.5,20.7V35L65,19.3L55.5,20.7z M55.7,19.6l9.4-1.3l-6-8L55.7,19.6z M66.6,18l8-2l-6.7-8.7
		L66.6,18z M67,6.9l-7.3,2.6l5.9,7.9L67,6.9z M36.2,17.2l16.3,16.3l-8.7-14.4L36.2,17.2z M54.5,35V20.7L45,19.3L54.5,35z M57.5,33.5
		l16.3-16.3l-7.5,1.9L57.5,33.5z M58.8,8.8l7-2.6C63.8,5.7,59.7,5,55,5s-8.8,0.7-10.9,1.2l7,2.6H58.8z M51.8,9.7l3.2,9.1l3.2-9.1
		H51.8z M54.3,19.6l-3.4-9.4l-6,8L54.3,19.6z M42.1,7.3L35.5,16l8,2L42.1,7.3z M50.3,9.5l-7.2-2.6l1.3,10.6L50.3,9.5z"/>
</svg>