<?xml version="1.0" encoding="utf-8"?>
<svg version="1.1" class="ic_agile-development" xmlns="http://www.w3.org/2000/svg" xmlns:xlink="http://www.w3.org/1999/xlink" x="0px" y="0px" viewBox="0 0 320 320" style="enable-background:new 0 0 320 320;" xml:space="preserve">
	<path fill="#FBE8E7" d="M276.8,127.7c16.3,50,4.6,109.1-31.4,135.5c-36,26.4-96.5,20.1-141.9-11.8c-45.5-31.9-76-89.3-62-136.2 c14-46.9,72.4-83.2,123.7-80.9C216.4,36.7,260.5,77.7,276.8,127.7z"/>
	<g>
		<path fill="#B5B5B5" d="M283.2,241.8l-26.7-15.4c-2.4-1.4-5.4,0.3-5.4,3.1v6.3H160V254h91.1v6.3c0,2.8,3,4.5,5.4,3.1l26.7-15.4
			C285.6,246.6,285.6,243.2,283.2,241.8z"/>
		<path fill="#112D4E" d="M268.4,163.7l-10,1.3c-2.3,23.3-12.8,44.8-29.8,61.2C210,244,185.7,253.8,160,253.8v0.2H44.1
			c-5,0-9.1-4.1-9.1-9.1c0-5,4.1-9.1,9.1-9.1h59.1c-7.3-5.1-14-11.3-19.7-18.4c-3.1-3.8-2.6-9.5,1.3-12.6c3.8-3.1,9.5-2.6,12.6,1.3
			c15.4,18.9,38.3,29.8,62.7,29.8c21,0,40.9-8,56.1-22.6c12.9-12.4,21.2-28.4,23.8-45.9l-9,1.2c-2.7,0.4-4.8-2.4-3.8-4.9l14.5-34.8
			c1.1-2.6,4.5-3,6.2-0.8l22.9,30C272.4,160.1,271.1,163.3,268.4,163.7z M268.1,107.6c0-4.5-3.6-8.1-8.1-8.1s-8.1,3.6-8.1,8.1
			c0,4.5,3.6,8.1,8.1,8.1S268.1,112.1,268.1,107.6z M264.1,107.6c0,2.3-1.8,4.1-4.1,4.1s-4.1-1.8-4.1-4.1c0-2.3,1.8-4.1,4.1-4.1
			S264.1,105.4,264.1,107.6z"/>
		<path fill="#E51A3C" d="M235.3,105.1c-3.8,3.1-9.5,2.6-12.6-1.3C207.2,84.9,184.4,74,160,74c-21,0-40.9,8-56.1,22.6
			C91,109,82.8,125.1,80.1,142.5l9-1.2c2.7-0.4,4.8,2.4,3.8,4.9l-14.5,34.8c-1.1,2.6-4.5,3-6.2,0.8l-22.9-30
			c-1.7-2.2-0.4-5.4,2.4-5.7l10-1.3c2.3-23.3,12.8-44.8,29.8-61.2C110,65.9,134.3,56.1,160,56.1c29.8,0,57.7,13.3,76.6,36.4
			C239.7,96.3,239.2,101.9,235.3,105.1z M67.8,200.6h-6.1v-6.1c0-1.1-0.9-2-2-2s-2,0.9-2,2v6.1h-6.1c-1.1,0-2,0.9-2,2s0.9,2,2,2h6.1
			v6.1c0,1.1,0.9,2,2,2s2-0.9,2-2v-6.1h6.1c1.1,0,2-0.9,2-2S68.9,200.6,67.8,200.6z"/>
		<path fill="#6F6F6F" d="M208.5,190.6l6.6-0.4c1,0,1.8-0.7,1.9-1.7l0.4-4.4c0.1-0.8-0.4-1.5-1.1-1.8c-0.2-0.1-0.3-0.1-0.5-0.1
			l-6.5-1.6c-0.1,0-0.2,0-0.3-0.1c-0.3-0.1-0.5-0.4-0.6-0.7l-1.7-5.3c-0.1-0.4,0-0.8,0.3-1.1l4.4-4.9c0.7-0.7,0.7-1.8,0.1-2.5
			l-2.8-3.4c-0.2-0.2-0.4-0.4-0.6-0.5c-0.6-0.3-1.3-0.2-1.9,0.2l-5.6,3.4c-0.3,0.2-0.7,0.3-1.1,0.1c0,0,0,0,0,0l-4.9-2.6
			c-0.4-0.2-0.6-0.6-0.6-1l-0.4-6.7c0-0.7-0.4-1.4-1.1-1.7c-0.2-0.1-0.4-0.1-0.6-0.2l-4.4-0.4c-1-0.1-1.8,0.6-2,1.5l-1.5,6.5
			c-0.1,0.4-0.4,0.7-0.8,0.9l-5.3,1.7c-0.3,0.1-0.6,0-0.8-0.1c-0.1-0.1-0.2-0.1-0.3-0.2l-4.9-4.4c-0.2-0.2-0.3-0.3-0.5-0.4
			c-0.6-0.3-1.4-0.2-2,0.2l-3.4,2.8c-0.7,0.6-0.9,1.7-0.3,2.5l3.4,5.6c0.2,0.3,0.3,0.8,0.1,1.1l-2.6,4.9c-0.2,0.4-0.6,0.6-1,0.6
			L159,177c-1,0-1.8,0.7-1.9,1.7l-0.4,4.4c-0.1,0.8,0.4,1.5,1.1,1.8c0.1,0.1,0.3,0.1,0.5,0.1l6.5,1.6c0.1,0,0.2,0,0.3,0.1
			c0.3,0.1,0.5,0.4,0.6,0.7l1.7,5.3c0.1,0.4,0,0.8-0.3,1.1l-4.4,4.9c-0.7,0.7-0.7,1.8-0.1,2.5l2.8,3.4c0.2,0.2,0.4,0.4,0.6,0.5
			c0.6,0.3,1.3,0.2,1.9-0.2l5.6-3.4c0.3-0.2,0.7-0.3,1.1-0.1c0,0,0,0,0.1,0l4.9,2.6c0.4,0.2,0.6,0.6,0.6,1l0.3,6.7
			c0,0.8,0.4,1.4,1.1,1.7c0.2,0.1,0.4,0.1,0.6,0.2l4.4,0.4c1,0.1,1.8-0.6,2-1.5l1.6-6.5c0.1-0.4,0.4-0.7,0.7-0.9l5.3-1.7
			c0.3-0.1,0.5-0.1,0.8,0c0.1,0.1,0.2,0.1,0.3,0.2l4.9,4.4c0.2,0.2,0.3,0.3,0.5,0.4c0.6,0.3,1.4,0.2,2-0.3l3.4-2.8
			c0.7-0.6,0.9-1.7,0.3-2.5l-3.4-5.6c-0.2-0.3-0.3-0.8-0.1-1.1l2.6-4.9C207.7,190.8,208,190.6,208.5,190.6z M193.6,191.5
			c-2.1,1.8-4.8,2.6-7.5,2.3c-1.2-0.1-2.3-0.4-3.4-0.9c-1.4-0.6-2.6-1.6-3.5-2.7c-1.8-2.1-2.6-4.8-2.3-7.5c0.2-2.7,1.6-5.2,3.6-6.9
			c2.1-1.8,4.8-2.6,7.5-2.3c1.2,0.1,2.3,0.4,3.4,0.9c1.4,0.6,2.6,1.6,3.6,2.7c1.7,2.1,2.6,4.8,2.3,7.5
			C197,187.3,195.7,189.8,193.6,191.5z"/>
		<path fill="#333333" d="M178.6,116l-8.6,1c-0.5,0.1-1.1-0.1-1.4-0.5l-4.4-5.8c-0.3-0.4-0.4-1-0.2-1.5l3.2-8c0.5-1.1,0.1-2.5-1-3.1
			l-5-2.9c-0.6-0.3-1.2-0.4-1.8-0.2c-0.5,0.1-1,0.5-1.4,1l-5.3,6.7c-0.2,0.3-0.5,0.5-0.8,0.6c-0.2,0-0.4,0.1-0.6,0l-7.2-0.9
			c-0.5-0.1-1-0.4-1.2-0.9l-3.4-8c-0.4-1.2-1.7-1.8-2.9-1.5l-5.6,1.5c-1.2,0.3-2,1.5-1.7,2.8l1,8.6c0.1,0.5-0.1,1.1-0.5,1.4
			l-5.8,4.4c-0.2,0.1-0.3,0.2-0.5,0.2c-0.3,0.1-0.7,0.1-1-0.1l-8-3.2c-0.5-0.3-1.1-0.3-1.7-0.2c-0.6,0.2-1.1,0.6-1.5,1.1l-2.9,5
			c-0.6,1.1-0.3,2.5,0.7,3.2l6.7,5.3c0.4,0.3,0.7,0.8,0.6,1.4l-0.9,7.2c-0.1,0.5-0.4,1-0.9,1.2l-8,3.4c-1.2,0.4-1.8,1.7-1.5,2.9
			l1.5,5.5c0.3,1.2,1.5,2,2.8,1.7l8.6-1c0.5-0.1,1.1,0.1,1.4,0.5l4.4,5.8c0.3,0.4,0.4,1,0.2,1.5l-3.2,8c-0.6,1.1-0.1,2.5,1,3.1
			l5,2.9c0.6,0.3,1.2,0.4,1.8,0.2c0.5-0.1,1-0.5,1.4-1l5.3-6.7c0.2-0.3,0.5-0.5,0.8-0.6c0.2,0,0.4-0.1,0.6,0l7.2,0.9
			c0.5,0.1,1,0.4,1.2,1l3.4,8c0.4,1.2,1.7,1.9,2.9,1.5l5.6-1.5c1.2-0.3,2-1.5,1.7-2.8l-1-8.6c-0.1-0.5,0.1-1.1,0.5-1.4l5.8-4.4
			c0.2-0.1,0.3-0.2,0.5-0.2c0.3-0.1,0.7-0.1,1,0.1l8,3.2c0.5,0.2,1.1,0.3,1.7,0.2c0.6-0.2,1.1-0.6,1.5-1.1l2.9-5
			c0.6-1.1,0.3-2.5-0.7-3.2l-6.7-5.3c-0.4-0.3-0.7-0.8-0.6-1.4l0.9-7.2c0.1-0.5,0.4-1,0.9-1.2l8-3.4c1.2-0.4,1.8-1.7,1.5-2.9
			l-1.5-5.5C181.1,116.6,179.9,115.8,178.6,116z M155.7,137.4c-1.8,3.1-4.7,5.3-8.1,6.2c0,0,0,0,0,0c-3.4,0.9-7,0.5-10.1-1.3
			c-3.1-1.8-5.3-4.7-6.2-8.1c-0.9-3.4-0.4-7.1,1.3-10.1c1.8-3,4.7-5.3,8.1-6.2c0,0,0,0,0,0c0,0,0,0,0,0c3.4-0.9,7-0.4,10.1,1.3
			c3.1,1.8,5.3,4.7,6.2,8.1C157.9,130.7,157.5,134.3,155.7,137.4z"/>
		<path fill="#FFFFFF" d="M70.8,144.1C70.8,144.1,70.8,144.1,70.8,144.1c-0.3,0-0.5-0.3-0.5-0.6c6.8-45.7,44.6-78.8,89.7-78.8
			c26.4,0,52.4,12.2,69.6,32.6c0.2,0.2,0.2,0.5-0.1,0.7c-0.2,0.2-0.5,0.2-0.7-0.1c-17.1-20.2-42.8-32.3-68.9-32.3
			c-44.6,0-81.9,32.8-88.7,78C71.3,143.9,71,144.1,70.8,144.1z M249,166.7c-0.3,0-0.5,0.2-0.6,0.4c-5.8,44.2-43.8,77.5-88.4,77.5
			c-26.7,0-51.8-11.8-68.8-32.5c-0.2-0.2-0.5-0.2-0.7-0.1c-0.2,0.2-0.2,0.5-0.1,0.7c14.3,17.4,34.3,28.6,56.2,31.8H57.1
			c-0.3,0-0.5,0.2-0.5,0.5s0.2,0.5,0.5,0.5h102.4c0,0,0,0,0,0c0.2,0,0.3,0,0.5,0c45.1,0,83.6-33.7,89.4-78.3
			C249.5,167,249.3,166.7,249,166.7z M53.1,244.6H45c-0.3,0-0.5,0.2-0.5,0.5s0.2,0.5,0.5,0.5h8.1c0.3,0,0.5-0.2,0.5-0.5
			S53.3,244.6,53.1,244.6z"/>
	</g>
</svg>
