<?xml version="1.0" encoding="utf-8"?>
<svg version="1.1" class="ic_best-practices" xmlns="http://www.w3.org/2000/svg" xmlns:xlink="http://www.w3.org/1999/xlink" x="0px" y="0px" viewBox="0 0 320 320" style="enable-background:new 0 0 320 320;" xml:space="preserve">
	<path fill="#FBE8E7" d="M307.8,111.1c12,40-26.8,101.5-84,135.3c-57.1,33.8-132.6,40-174.6,3.7 C7.3,213.8-1.2,135,24.6,91.9c25.8-43.1,85.8-50.5,147.2-45C233.2,52.5,295.9,71.1,307.8,111.1z"/>
	<g>
		<g class="editor">
			<path fill="#0E1C45" d="M291.5,247.2h-132V79.1h135v165.1C294.5,245.9,293.1,247.2,291.5,247.2z"/>
			<path fill="#112D4E" d="M291.5,247.2H162.6v-165h131.9v162C294.5,245.9,293.1,247.2,291.5,247.2z"/>
			<path fill="#E51A3C" d="M170.1,95h17.7v2.1h-17.7V95z M183.4,107.5h16.7v-2.1h-16.7V107.5z M183.4,112.6h16.7v-2.1h-16.7V112.6z
				 M195,117.8h16.2v-2.1H195V117.8z M203.4,102.2h17v-2.1h-17V102.2z M183.4,128.2h16.7v-2.1h-16.7V128.2z M183.4,133.3h16.7v-2.1
				h-16.7V133.3z M183.4,138.6h16.7v-2.1h-16.7V138.6z M183.4,143.7h16.7v-2.1h-16.7V143.7z M170.1,154.2h17.7v-2.1h-17.7V154.2z
				 M183.4,164.6h16.7v-2.1h-16.7V164.6z M183.4,169.7h16.7v-2.1h-16.7V169.7z M195,174.9h16.2v-2.1H195V174.9z M203.4,159.3h17
				v-2.1h-17V159.3z M183.4,185.3h16.7v-2.1h-16.7V185.3z M183.4,190.4h16.7v-2.1h-16.7V190.4z M170.1,199h17.7v-2.1h-17.7V199z
				 M183.4,209.3h16.7v-2.1h-16.7V209.3z M183.4,214.6h16.7v-2.1h-16.7V214.6z M195,219.7h16.2v-2.1H195V219.7z M203.4,204.2h17
				v-2.1h-17V204.2z M183.4,230h16.7v-2.1h-16.7V230z M183.4,235.3h16.7v-2.1h-16.7V235.3z M241.1,105.6h9.9v2.1h-9.9V105.6z
				 M222.6,133.5h7.2v-2.1h-7.2V133.5z M227.9,164.7h14.3v-2.1h-14.3V164.7z M235.9,185.3h7.6v-2.1h-7.6V185.3z M213.8,199h8.5v-2.1
				h-8.5V199L213.8,199z M246.1,209.3h8.7v-2.1h-8.7V209.3z M235.9,230h7.6v-2.1h-7.6V230z"/>
			<path fill="#FFFFFF" d="M170.1,100.1h28.4v2.1h-28.4V100.1z M193.7,97.1h30.1V95h-30.1V97.1L193.7,97.1z M205,107.5h9.7v-2.1H205
				V107.5z M225.3,112.6h21v-2.1h-21V112.6z M205,133.3h15v-2.1h-15V133.3L205,133.3z M236.4,128.2h7.5v-2.1h-7.5V128.2z M205,143.7
				h30.5v-2.1H205V143.7L205,143.7z M219.3,138.6h18.4v-2.1h-18.4V138.6z M170.1,159.3h28.4v-2.1h-28.4V159.3z M228.6,154.2h26.8
				v-2.1h-26.8V154.2z M221.7,169.6h24.7v-2.1h-24.7V169.6z M256,174.9h6.7v-2.1H256V174.9z M205,185.3h27.4v-2.1H205V185.3z
				 M205,190.4h15v-2.1h-15V190.4L205,190.4z M170.1,204.2h28.4v-2.1h-28.4V204.2z M193.7,198.9h16.8v-2.1h-16.8V198.9z M205,209.3
				h19v-2.1h-19V209.3z M221.7,214.5h24.7v-2.1h-24.7V214.5z M205,230h27.4v-2.1H205V230z M227.6,95h14.3v2.1h-14.3V95z M247.3,97.1
				h19.4V95h-19.4V97.1z M204.5,112.6h16.6v-2.1h-16.6V112.6L204.5,112.6z M218.8,107.5h18.3v-2.1h-18.3V107.5z M254.8,107.5h11.9
				v-2.1h-11.9V107.5z M248.8,112.6h6.3v-2.1h-6.3V112.6z M204.5,128.2h9.7v-2.1h-9.7V128.2z M218.8,128.2H233v-2.1h-14.2V128.2z
				 M246.4,128.2h9.2v-2.1h-9.2V128.2z M234,133.3h16.6v-2.1H234V133.3z M204.5,138.6h9.7v-2.1h-9.7V138.6z M240.9,138.6h9.7v-2.1
				h-9.7V138.6z M254.8,138.6h11.9v-2.1h-11.9V138.6z M238.7,143.7h17v-2.1h-17V143.7z M214.2,154.2h8.4v-2.1h-8.4V154.2
				L214.2,154.2z M204.5,164.6h18.9v-2.1h-18.9V164.6z M204.5,169.7h12.8v-2.1h-12.8V169.7L204.5,169.7z M248.8,169.7h6.3v-2.1h-6.3
				V169.7z M215.1,174.9H227v-2.1h-11.9V174.9z M229.9,174.9h22.2v-2.1h-22.2V174.9z M246.4,185.3h9.2v-2.1h-9.2V185.3z M234,190.4
				h16.6v-2.1H234V190.4z M228.1,199h38.6v-2.1h-38.6V199z M228.1,209.3h14v-2.1h-14V209.3z M258.5,209.3h8.2v-2.1h-8.2V209.3z
				 M248.8,214.6h6.3v-2.1h-6.3V214.6z M215.1,219.7H227v-2.1h-11.9V219.7z M204.5,235.3h14.9v-2.1h-14.9V235.3L204.5,235.3z
				 M246.4,230h9.2v-2.1h-9.2V230z M234,235.3h16.6v-2.1H234V235.3z M170.1,89.7h55.6v2.1h-55.6V89.7z M216,117.8h12.1v-2.1H216
				V117.8z M194,154.2h16.9v-2.1H194V154.2z M223.9,190.4h7.1v-2.1h-7.1V190.4z M205.3,214.6h13v-2.1h-13V214.6L205.3,214.6z
				 M223.9,235.3h7.1v-2.1h-7.1V235.3z"/>
		</g>
		<g class="web">
			<path fill="#B5B5B5" d="M96,79.1H24.5v71.5c1,0,1.9,0,3-0.1l0,0c36.6-2.4,65.9-31.7,68.3-68.3l0,0 C96,81.1,96,80.2,96,79.1z"/>
			<path fill="#DBDBDB" d="M96.4,82.2H27.6V151C64.5,148.6,94,119.1,96.4,82.2z"/>
			<path fill="#B5B5B5" d="M30.7,86.3c-0.6,0-1.1-0.5-1.1-1c0-0.6,0.5-1,1.1-1s1.1,0.5,1.1,1C31.7,85.9,31.3,86.3,30.7,86.3z
				 M38.2,86.3c-0.6,0-1.1-0.5-1.1-1c0-0.6,0.5-1,1.1-1c0.6,0,1.1,0.5,1.1,1C39.3,85.9,38.8,86.3,38.2,86.3z M46,86.3
				c-0.6,0-1.1-0.5-1.1-1c0-0.6,0.5-1,1.1-1c0.6,0,1.1,0.5,1.1,1C47,85.9,46.5,86.3,46,86.3z M53.5,86.3c-0.6,0-1.1-0.5-1.1-1
				c0-0.6,0.5-1,1.1-1c0.6,0,1.1,0.5,1.1,1C54.6,85.9,54.1,86.3,53.5,86.3z M34.6,90.2c-0.6,0-1.1-0.5-1.1-1c0-0.6,0.5-1,1.1-1
				c0.6,0,1.1,0.5,1.1,1C35.7,89.7,35.2,90.2,34.6,90.2z M42.2,90.2c-0.6,0-1.1-0.5-1.1-1c0-0.6,0.5-1,1.1-1c0.6,0,1.1,0.5,1.1,1
				C43.2,89.7,42.8,90.2,42.2,90.2z M49.9,90.2c-0.6,0-1.1-0.5-1.1-1c0-0.6,0.5-1,1.1-1c0.6,0,1.1,0.5,1.1,1
				C50.9,89.7,50.5,90.2,49.9,90.2z M57.5,90.2c-0.6,0-1.1-0.5-1.1-1c0-0.6,0.5-1,1.1-1c0.6,0,1.1,0.5,1.1,1
				C58.5,89.7,58,90.2,57.5,90.2z M30.7,94c-0.6,0-1.1-0.5-1.1-1c0-0.6,0.5-1,1.1-1s1.1,0.5,1.1,1C31.7,93.6,31.3,94,30.7,94z
				 M38.2,94c-0.6,0-1.1-0.5-1.1-1c0-0.6,0.5-1,1.1-1c0.6,0,1.1,0.5,1.1,1C39.3,93.6,38.8,94,38.2,94z M46,94c-0.6,0-1.1-0.5-1.1-1
				c0-0.6,0.5-1,1.1-1c0.6,0,1.1,0.5,1.1,1C47,93.6,46.5,94,46,94z M53.5,94c-0.6,0-1.1-0.5-1.1-1c0-0.6,0.5-1,1.1-1
				c0.6,0,1.1,0.5,1.1,1C54.6,93.6,54.1,94,53.5,94z M34.6,97.9c-0.6,0-1.1-0.5-1.1-1c0-0.6,0.5-1,1.1-1c0.6,0,1.1,0.5,1.1,1
				C35.7,97.4,35.2,97.9,34.6,97.9z M42.2,97.9c-0.6,0-1.1-0.5-1.1-1c0-0.6,0.5-1,1.1-1c0.6,0,1.1,0.5,1.1,1
				C43.2,97.4,42.8,97.9,42.2,97.9z M49.9,97.9c-0.6,0-1.1-0.5-1.1-1c0-0.6,0.5-1,1.1-1c0.6,0,1.1,0.5,1.1,1
				C50.9,97.4,50.5,97.9,49.9,97.9z M57.5,97.9c-0.6,0-1.1-0.5-1.1-1c0-0.6,0.5-1,1.1-1c0.6,0,1.1,0.5,1.1,1
				C58.5,97.4,58,97.9,57.5,97.9z M30.7,101.8c-0.6,0-1.1-0.5-1.1-1s0.5-1,1.1-1s1.1,0.5,1.1,1S31.3,101.8,30.7,101.8z M38.2,101.8
				c-0.6,0-1.1-0.5-1.1-1s0.5-1,1.1-1c0.6,0,1.1,0.5,1.1,1S38.8,101.8,38.2,101.8z M46,101.8c-0.6,0-1.1-0.5-1.1-1s0.5-1,1.1-1
				c0.6,0,1.1,0.5,1.1,1S46.5,101.8,46,101.8z M53.5,101.8c-0.6,0-1.1-0.5-1.1-1s0.5-1,1.1-1c0.6,0,1.1,0.5,1.1,1
				S54.1,101.8,53.5,101.8z M34.6,105.6c-0.6,0-1.1-0.5-1.1-1c0-0.6,0.5-1,1.1-1c0.6,0,1.1,0.5,1.1,1
				C35.7,105.2,35.2,105.6,34.6,105.6z M42.2,105.6c-0.6,0-1.1-0.5-1.1-1c0-0.6,0.5-1,1.1-1c0.6,0,1.1,0.5,1.1,1
				C43.2,105.2,42.8,105.6,42.2,105.6z M49.9,105.6c-0.6,0-1.1-0.5-1.1-1c0-0.6,0.5-1,1.1-1c0.6,0,1.1,0.5,1.1,1
				C50.9,105.2,50.5,105.6,49.9,105.6z M57.5,105.6c-0.6,0-1.1-0.5-1.1-1c0-0.6,0.5-1,1.1-1c0.6,0,1.1,0.5,1.1,1
				C58.5,105.2,58,105.6,57.5,105.6z M30.7,109.5c-0.6,0-1.1-0.5-1.1-1c0-0.6,0.5-1,1.1-1s1.1,0.5,1.1,1
				C31.7,109,31.3,109.5,30.7,109.5z M38.2,109.5c-0.6,0-1.1-0.5-1.1-1c0-0.6,0.5-1,1.1-1c0.6,0,1.1,0.5,1.1,1
				C39.3,109,38.8,109.5,38.2,109.5z M46,109.5c-0.6,0-1.1-0.5-1.1-1c0-0.6,0.5-1,1.1-1c0.6,0,1.1,0.5,1.1,1
				C47,109,46.5,109.5,46,109.5z M53.5,109.5c-0.6,0-1.1-0.5-1.1-1c0-0.6,0.5-1,1.1-1c0.6,0,1.1,0.5,1.1,1
				C54.6,109,54.1,109.5,53.5,109.5z M61.2,86.3c-0.6,0-1.1-0.5-1.1-1c0-0.6,0.5-1,1.1-1c0.6,0,1.1,0.5,1.1,1
				C62.3,85.9,61.8,86.3,61.2,86.3z M68.8,86.3c-0.6,0-1.1-0.5-1.1-1c0-0.6,0.5-1,1.1-1s1.1,0.5,1.1,1
				C69.9,85.9,69.4,86.3,68.8,86.3z M76.4,86.3c-0.6,0-1.1-0.5-1.1-1c0-0.6,0.5-1,1.1-1c0.6,0,1.1,0.5,1.1,1
				C77.4,85.9,76.9,86.3,76.4,86.3z M65.2,90.2c-0.6,0-1.1-0.5-1.1-1c0-0.6,0.5-1,1.1-1s1.1,0.5,1.1,1
				C66.2,89.7,65.8,90.2,65.2,90.2z M72.7,90.2c-0.6,0-1.1-0.5-1.1-1c0-0.6,0.5-1,1.1-1s1.1,0.5,1.1,1
				C73.8,89.7,73.3,90.2,72.7,90.2z M80.3,90.2c-0.6,0-1.1-0.5-1.1-1c0-0.6,0.5-1,1.1-1s1.1,0.5,1.1,1
				C81.4,89.7,80.9,90.2,80.3,90.2z M61.2,94c-0.6,0-1.1-0.5-1.1-1c0-0.6,0.5-1,1.1-1c0.6,0,1.1,0.5,1.1,1
				C62.3,93.6,61.8,94,61.2,94z M68.8,94c-0.6,0-1.1-0.5-1.1-1c0-0.6,0.5-1,1.1-1s1.1,0.5,1.1,1C69.9,93.6,69.4,94,68.8,94z
				 M76.4,94c-0.6,0-1.1-0.5-1.1-1c0-0.6,0.5-1,1.1-1c0.6,0,1.1,0.5,1.1,1C77.4,93.6,76.9,94,76.4,94z M65.2,97.9
				c-0.6,0-1.1-0.5-1.1-1c0-0.6,0.5-1,1.1-1s1.1,0.5,1.1,1C66.2,97.4,65.8,97.9,65.2,97.9z M72.7,97.9c-0.6,0-1.1-0.5-1.1-1
				c0-0.6,0.5-1,1.1-1s1.1,0.5,1.1,1C73.8,97.4,73.3,97.9,72.7,97.9z M80.3,97.9c-0.6,0-1.1-0.5-1.1-1c0-0.6,0.5-1,1.1-1
				s1.1,0.5,1.1,1C81.4,97.4,80.9,97.9,80.3,97.9z M61.2,101.8c-0.6,0-1.1-0.5-1.1-1s0.5-1,1.1-1c0.6,0,1.1,0.5,1.1,1
				S61.8,101.8,61.2,101.8z M68.8,101.8c-0.6,0-1.1-0.5-1.1-1s0.5-1,1.1-1s1.1,0.5,1.1,1S69.4,101.8,68.8,101.8z M76.4,101.8
				c-0.6,0-1.1-0.5-1.1-1s0.5-1,1.1-1c0.6,0,1.1,0.5,1.1,1S76.9,101.8,76.4,101.8z M65.2,105.6c-0.6,0-1.1-0.5-1.1-1
				c0-0.6,0.5-1,1.1-1s1.1,0.5,1.1,1C66.2,105.2,65.8,105.6,65.2,105.6z M72.7,105.6c-0.6,0-1.1-0.5-1.1-1c0-0.6,0.5-1,1.1-1
				s1.1,0.5,1.1,1C73.8,105.2,73.3,105.6,72.7,105.6z M80.3,105.6c-0.6,0-1.1-0.5-1.1-1c0-0.6,0.5-1,1.1-1s1.1,0.5,1.1,1
				C81.4,105.2,80.9,105.6,80.3,105.6z M61.2,109.5c-0.6,0-1.1-0.5-1.1-1c0-0.6,0.5-1,1.1-1c0.6,0,1.1,0.5,1.1,1
				C62.3,109,61.8,109.5,61.2,109.5z M68.8,109.5c-0.6,0-1.1-0.5-1.1-1c0-0.6,0.5-1,1.1-1s1.1,0.5,1.1,1
				C69.9,109,69.4,109.5,68.8,109.5z M76.4,109.5c-0.6,0-1.1-0.5-1.1-1c0-0.6,0.5-1,1.1-1c0.6,0,1.1,0.5,1.1,1
				C77.4,109,76.9,109.5,76.4,109.5z M34.6,113.3c-0.6,0-1.1-0.5-1.1-1c0-0.6,0.5-1,1.1-1c0.6,0,1.1,0.5,1.1,1
				C35.7,112.9,35.2,113.3,34.6,113.3z M42.2,113.3c-0.6,0-1.1-0.5-1.1-1c0-0.6,0.5-1,1.1-1c0.6,0,1.1,0.5,1.1,1
				C43.2,112.9,42.8,113.3,42.2,113.3z M49.9,113.3c-0.6,0-1.1-0.5-1.1-1c0-0.6,0.5-1,1.1-1c0.6,0,1.1,0.5,1.1,1
				C50.9,112.9,50.5,113.3,49.9,113.3z M57.5,113.3c-0.6,0-1.1-0.5-1.1-1c0-0.6,0.5-1,1.1-1c0.6,0,1.1,0.5,1.1,1
				C58.5,112.9,58,113.3,57.5,113.3z M30.7,117.2c-0.6,0-1.1-0.5-1.1-1c0-0.6,0.5-1,1.1-1s1.1,0.5,1.1,1
				C31.7,116.7,31.3,117.2,30.7,117.2z M38.2,117.2c-0.6,0-1.1-0.5-1.1-1c0-0.6,0.5-1,1.1-1c0.6,0,1.1,0.5,1.1,1
				C39.3,116.7,38.8,117.2,38.2,117.2z M46,117.2c-0.6,0-1.1-0.5-1.1-1c0-0.6,0.5-1,1.1-1c0.6,0,1.1,0.5,1.1,1
				C47,116.7,46.5,117.2,46,117.2z M53.5,117.2c-0.6,0-1.1-0.5-1.1-1c0-0.6,0.5-1,1.1-1c0.6,0,1.1,0.5,1.1,1
				C54.6,116.7,54.1,117.2,53.5,117.2z M34.6,121.1c-0.6,0-1.1-0.5-1.1-1s0.5-1,1.1-1c0.6,0,1.1,0.5,1.1,1S35.2,121.1,34.6,121.1z
				 M42.2,121.1c-0.6,0-1.1-0.5-1.1-1s0.5-1,1.1-1c0.6,0,1.1,0.5,1.1,1S42.8,121.1,42.2,121.1z M49.9,121.1c-0.6,0-1.1-0.5-1.1-1
				s0.5-1,1.1-1c0.6,0,1.1,0.5,1.1,1S50.5,121.1,49.9,121.1z M57.5,121.1c-0.6,0-1.1-0.5-1.1-1s0.5-1,1.1-1c0.6,0,1.1,0.5,1.1,1
				S58,121.1,57.5,121.1z M30.7,124.9c-0.6,0-1.1-0.5-1.1-1c0-0.6,0.5-1,1.1-1s1.1,0.5,1.1,1C31.7,124.4,31.3,124.9,30.7,124.9z
				 M38.2,124.9c-0.6,0-1.1-0.5-1.1-1c0-0.6,0.5-1,1.1-1c0.6,0,1.1,0.5,1.1,1C39.3,124.4,38.8,124.9,38.2,124.9z M46,124.9
				c-0.6,0-1.1-0.5-1.1-1c0-0.6,0.5-1,1.1-1c0.6,0,1.1,0.5,1.1,1C47,124.4,46.5,124.9,46,124.9z M53.5,124.9c-0.6,0-1.1-0.5-1.1-1
				c0-0.6,0.5-1,1.1-1c0.6,0,1.1,0.5,1.1,1C54.6,124.4,54.1,124.9,53.5,124.9z M34.6,128.8c-0.6,0-1.1-0.5-1.1-1c0-0.6,0.5-1,1.1-1
				c0.6,0,1.1,0.5,1.1,1C35.7,128.3,35.2,128.8,34.6,128.8z M42.2,128.8c-0.6,0-1.1-0.5-1.1-1c0-0.6,0.5-1,1.1-1
				c0.6,0,1.1,0.5,1.1,1C43.2,128.3,42.8,128.8,42.2,128.8z M49.9,128.8c-0.6,0-1.1-0.5-1.1-1c0-0.6,0.5-1,1.1-1
				c0.6,0,1.1,0.5,1.1,1C50.9,128.3,50.5,128.8,49.9,128.8z M57.5,128.8c-0.6,0-1.1-0.5-1.1-1c0-0.6,0.5-1,1.1-1
				c0.6,0,1.1,0.5,1.1,1C58.5,128.3,58,128.8,57.5,128.8z M30.7,132.6c-0.6,0-1.1-0.5-1.1-1c0-0.6,0.5-1,1.1-1s1.1,0.5,1.1,1
				C31.7,132.2,31.3,132.6,30.7,132.6z M38.2,132.6c-0.6,0-1.1-0.5-1.1-1c0-0.6,0.5-1,1.1-1c0.6,0,1.1,0.5,1.1,1
				C39.3,132.2,38.8,132.6,38.2,132.6z M46,132.6c-0.6,0-1.1-0.5-1.1-1c0-0.6,0.5-1,1.1-1c0.6,0,1.1,0.5,1.1,1
				C47,132.2,46.5,132.6,46,132.6z M53.5,132.6c-0.6,0-1.1-0.5-1.1-1c0-0.6,0.5-1,1.1-1c0.6,0,1.1,0.5,1.1,1
				C54.6,132.2,54.1,132.6,53.5,132.6z M65.2,113.3c-0.6,0-1.1-0.5-1.1-1c0-0.6,0.5-1,1.1-1s1.1,0.5,1.1,1
				C66.2,112.9,65.8,113.3,65.2,113.3z M72.7,113.3c-0.6,0-1.1-0.5-1.1-1c0-0.6,0.5-1,1.1-1s1.1,0.5,1.1,1
				C73.8,112.9,73.3,113.3,72.7,113.3z M80.3,113.3c-0.6,0-1.1-0.5-1.1-1c0-0.6,0.5-1,1.1-1s1.1,0.5,1.1,1
				C81.4,112.9,80.9,113.3,80.3,113.3z M61.2,117.2c-0.6,0-1.1-0.5-1.1-1c0-0.6,0.5-1,1.1-1c0.6,0,1.1,0.5,1.1,1
				C62.3,116.7,61.8,117.2,61.2,117.2z M68.8,117.2c-0.6,0-1.1-0.5-1.1-1c0-0.6,0.5-1,1.1-1s1.1,0.5,1.1,1
				C69.9,116.7,69.4,117.2,68.8,117.2z M76.4,117.2c-0.6,0-1.1-0.5-1.1-1c0-0.6,0.5-1,1.1-1c0.6,0,1.1,0.5,1.1,1
				C77.4,116.7,76.9,117.2,76.4,117.2z M65.2,121.1c-0.6,0-1.1-0.5-1.1-1s0.5-1,1.1-1s1.1,0.5,1.1,1S65.8,121.1,65.2,121.1z
				 M72.7,121.1c-0.6,0-1.1-0.5-1.1-1s0.5-1,1.1-1s1.1,0.5,1.1,1S73.3,121.1,72.7,121.1z M80.3,121.1c-0.6,0-1.1-0.5-1.1-1
				s0.5-1,1.1-1s1.1,0.5,1.1,1S80.9,121.1,80.3,121.1z M61.2,124.9c-0.6,0-1.1-0.5-1.1-1c0-0.6,0.5-1,1.1-1c0.6,0,1.1,0.5,1.1,1
				C62.3,124.4,61.8,124.9,61.2,124.9z M68.8,124.9c-0.6,0-1.1-0.5-1.1-1c0-0.6,0.5-1,1.1-1s1.1,0.5,1.1,1
				C69.9,124.4,69.4,124.9,68.8,124.9z M76.4,124.9c-0.6,0-1.1-0.5-1.1-1c0-0.6,0.5-1,1.1-1c0.6,0,1.1,0.5,1.1,1
				C77.4,124.4,76.9,124.9,76.4,124.9z M65.2,128.8c-0.6,0-1.1-0.5-1.1-1c0-0.6,0.5-1,1.1-1s1.1,0.5,1.1,1
				C66.2,128.3,65.8,128.8,65.2,128.8z M72.7,128.8c-0.6,0-1.1-0.5-1.1-1c0-0.6,0.5-1,1.1-1s1.1,0.5,1.1,1
				C73.8,128.3,73.3,128.8,72.7,128.8z M80.3,128.8c-0.6,0-1.1-0.5-1.1-1c0-0.6,0.5-1,1.1-1s1.1,0.5,1.1,1
				C81.4,128.3,80.9,128.8,80.3,128.8z M61.2,132.6c-0.6,0-1.1-0.5-1.1-1c0-0.6,0.5-1,1.1-1c0.6,0,1.1,0.5,1.1,1
				C62.3,132.2,61.8,132.6,61.2,132.6z M68.8,132.6c-0.6,0-1.1-0.5-1.1-1c0-0.6,0.5-1,1.1-1s1.1,0.5,1.1,1
				C69.9,132.2,69.4,132.6,68.8,132.6z M76.4,132.6c-0.6,0-1.1-0.5-1.1-1c0-0.6,0.5-1,1.1-1c0.6,0,1.1,0.5,1.1,1
				C77.4,132.2,76.9,132.6,76.4,132.6z M84.7,80.2h-0.5v35.7h0.5V80.2z M63.9,135.5H25.5v0.5h38.4V135.5z"/>
			<path fill="#FFFFFF" d="M92,79.1c-0.2,37.2-30.3,67.4-67.5,67.4v97.7c0,1.7,1.4,3,3,3h132V79.1H92z"/>
		</g>
		<g class="image" transform="translate(8.652705, 67.249306)">
			<path fill="#B5B5B5" d="M27.8,141.2l22.8-29.8c0.3-0.4,1.1-0.4,1.5,0l13.4,16.9c0.3,0.4,1.1,0.4,1.4,0l10.1-10.6
				c0.3-0.4,1.1-0.4,1.4,0l21.9,23.5c0.6,0.6,0.2,1.6-0.8,1.6H28.6C27.8,142.7,27.4,141.8,27.8,141.2z M82.9,98.5
				c-3.2,0-5.7,2.5-5.7,5.7s2.6,5.7,5.7,5.7s5.7-2.5,5.7-5.7S85.9,98.5,82.9,98.5z"/>
			<path fill="#DBDBDB" d="M100.8,144.2H27.5c-1.4,0-2.4-1-2.4-2.4V92.2c0-1.3,1.1-2.4,2.4-2.4h73.3c1.4,0,2.4,1,2.4,2.4
				v49.6C103.2,143.2,102.1,144.2,100.8,144.2z M28.1,141.2h72.1V92.8H28.1V141.2z"/>
		</g>
		<path fill="#6F6F6F" d="M148.7,219.9H35.3c-0.9,0-1.5-0.6-1.5-1.5c0-0.9,0.6-1.5,1.5-1.5h113.4c0.9,0,1.5,0.6,1.5,1.5
			C150.2,219.2,149.6,219.9,148.7,219.9z M150.2,226c0-0.9-0.6-1.5-1.5-1.5H35.3c-0.9,0-1.5,0.6-1.5,1.5s0.6,1.5,1.5,1.5h113.4
			C149.6,227.6,150.2,227,150.2,226z M127.5,233.8c0-0.9-0.6-1.5-1.5-1.5H35.3c-0.9,0-1.5,0.6-1.5,1.5c0,0.9,0.6,1.5,1.5,1.5H126
			C126.9,235.3,127.5,234.7,127.5,233.8z"/>
		<path fill="#DBDBDB" d="M148.7,211.5H120c-0.9,0-1.5-0.6-1.5-1.5v-51.3c0-0.9,0.6-1.5,1.5-1.5h28.7
			c0.9,0,1.5,0.6,1.5,1.5v51.4C150.2,210.9,149.6,211.5,148.7,211.5z"/>
		<path fill="#E51A3C" d="M123,116.9l10.9-1.5l-10.9,18V116.9z M123.3,115.7l3.8-10.6l7.1,9.1L123.3,115.7z M137.3,101.7
			l7.6,10l-9.1,2.2L137.3,101.7z M134.7,113.2l-6.9-9l8.4-3.1L134.7,113.2z M109.4,115.1l10.2,16.6L100.8,113L109.4,115.1z
			 M121.8,116.9v16.5l-10.9-18L121.8,116.9z M135.5,115.1l8.6-2.1l-18.8,18.7L135.5,115.1z M110,100.3c2.4-0.4,7.1-1.3,12.6-1.3
			c5.4,0,10.1,0.7,12.4,1.3l-8.1,3h-8.9L110,100.3z M122.4,114.8l-3.7-10.5h7.5L122.4,114.8z M121.5,115.7l-10.6-1.5l6.9-9.1
			L121.5,115.7z M109.1,113.9l-9.2-2.2l7.7-10L109.1,113.9z M110.1,113.2l-1.5-12.1l8.4,3.1L110.1,113.2z"/>
		<g class="top_bar" transform="translate(0.652705, 0.249306)">
			<path fill="#DBDBDB" d="M293.8,78.9h-270v-8.9c0-1.6,1.4-3,3-3h264c1.7,0,3,1.3,3,3V78.9z"/>
			<ellipse fill="#FB5955" cx="29.9" cy="72.9" rx="2.3" ry="2.2"/>
			<ellipse fill="#FDBC44" cx="35.9" cy="72.9" rx="2.3" ry="2.2"/>
			<ellipse fill="#37C94B" cx="41.9" cy="72.9" rx="2.3" ry="2.2"/>
		</g>
	</g>
</svg>