<?xml version="1.0" encoding="utf-8"?>
<svg version="1.1" class="ic_open-source" xmlns="http://www.w3.org/2000/svg" xmlns:xlink="http://www.w3.org/1999/xlink" x="0px" y="0px" viewBox="0 0 320 320" style="enable-background:new 0 0 320 320;" xml:space="preserve">
	<path fill="#FBE8E7" d="M290.9,117.3c13.2,43.1-17.3,98.1-62.1,129.8C184,278.8,125,287.2,84.7,260.3 c-40.2-27-61.5-89.4-45.2-136.7c16.3-47.3,70.2-79.4,125.7-80C220.7,43.1,277.7,74.3,290.9,117.3z"/>
	<g>
		<path fill="#112D4E" d="M193.9,170.6l0,6.8h-34v84.2c0,3,2.4,5.4,5.4,5.4h78.8c3,0,5.4-2.4,5.4-5.4v-78.8 c0-3-2.4-5.4-5.4-5.4h-28.7v-7.2c0-6-4.9-10.9-11-10.7C198.5,159.6,193.9,164.7,193.9,170.6z"/>
		<path fill="#F5F5F5" d="M166.7,211.5h-6.8v-34H75.6c-3,0-5.4,2.4-5.4,5.4v78.8c0,3,2.4,5.4,5.4,5.4h78.8 c3,0,5.4-2.4,5.4-5.4V233h7.2c6,0,10.9-4.9,10.7-11C177.7,216.1,172.6,211.5,166.7,211.5z"/>
		<path fill="#FFFFFF" d="M159.8,177.4v-34H153c-5.9,0-11-4.6-11.1-10.5c-0.1-6,4.7-11,10.7-11h7.2V93.2 c0-3-2.4-5.4-5.4-5.4H75.6c-3,0-5.4,2.4-5.4,5.4V172c0,3,2.4,5.4,5.4,5.4H159.8z"/>
		<path fill="#E51A3C" d="M195.7,86h-6.8c-5.9,0-11,4.6-11.1,10.5c-0.1,6,4.7,11,10.7,11h7.2v28.7c0,3,2.4,5.4,5.4,5.4 h28.7l0-6.8c0-5.9,4.6-11,10.5-11.1c6-0.1,11,4.7,11,10.7v7.2h28.7c3,0,5.4-2.4,5.4-5.4V57.4c0-3-2.4-5.4-5.4-5.4h-78.8 c-3,0-5.4,2.4-5.4,5.4V86z"/>
		<path fill="#6F6F6F" d="M105.5,249.7c0.3,0.3,0.3,0.9,0,1.3l-3.2,3.2c-0.3,0.3-0.9,0.3-1.2,0l-6.7-6.7l-6.7,6.7
			c-0.3,0.3-0.9,0.3-1.2,0l-3.2-3.2c-0.3-0.3-0.3-0.9,0-1.2L90,243l-6.7-6.7c-0.3-0.3-0.3-0.9,0-1.2l3.2-3.2c0.3-0.3,0.9-0.3,1.2,0
			l6.6,6.7l6.7-6.7c0.3-0.3,0.9-0.3,1.2,0l3.2,3.2c0.3,0.3,0.3,0.9,0,1.2l-6.7,6.7L105.5,249.7z M144.3,190c1.8,0,3.2,1.4,3.2,3.2
			c0,1.8-1.4,3.2-3.2,3.2c-1.8,0-3.2-1.4-3.2-3.2C141.1,191.4,142.5,190,144.3,190z M134.6,190c1.8,0,3.2,1.4,3.2,3.2
			c0,1.8-1.4,3.2-3.2,3.2s-3.2-1.4-3.2-3.2C131.4,191.4,132.9,190,134.6,190z M125,190c1.8,0,3.2,1.4,3.2,3.2c0,1.8-1.4,3.2-3.2,3.2
			c-1.8,0-3.2-1.4-3.2-3.2C121.7,191.4,123.2,190,125,190z"/>
		<path fill="#DBDBDB" d="M144.3,100.4c1.8,0,3.2,1.4,3.2,3.2c0,1.8-1.4,3.2-3.2,3.2c-1.8,0-3.2-1.4-3.2-3.2
			C141.1,101.8,142.5,100.4,144.3,100.4z M134.6,100.4c1.8,0,3.2,1.4,3.2,3.2c0,1.8-1.4,3.2-3.2,3.2s-3.2-1.4-3.2-3.2
			C131.4,101.8,132.9,100.4,134.6,100.4z M125,100.4c1.8,0,3.2,1.4,3.2,3.2c0,1.8-1.4,3.2-3.2,3.2c-1.8,0-3.2-1.4-3.2-3.2
			C121.7,101.8,123.2,100.4,125,100.4z M125.2,137.6H83.9c-0.5,0-0.8-0.4-0.8-0.8V132c0-0.5,0.4-0.8,0.8-0.8h41.3
			c0.5,0,0.8,0.4,0.8,0.8v4.8C126,137.3,125.7,137.6,125.2,137.6z M125.2,151.3H83.9c-0.5,0-0.8-0.4-0.8-0.8v-4.8
			c0-0.5,0.4-0.8,0.8-0.8h41.3c0.5,0,0.8,0.4,0.8,0.8v4.8C126,150.9,125.7,151.3,125.2,151.3z M115.3,164v-4.6
			c0-0.5-0.4-0.9-0.9-0.9H83.9c-0.5,0-0.9,0.4-0.9,0.9v4.6c0,0.5,0.4,0.9,0.9,0.9h30.4C114.9,164.9,115.3,164.5,115.3,164z"/>
		<path fill="#FFFFFF" d="M237.4,200.3c0.5,0,0.9,0.4,0.9,0.9l0,4.6c0,0.5-0.4,0.9-0.9,0.9l-9.4,0l0,9.4
			c0,0.5-0.4,0.9-0.9,0.9l-4.6,0c-0.5,0-0.9-0.4-0.9-0.9l0-9.4l-9.4,0c-0.5,0-0.9-0.4-0.9-0.9l0-4.6c0-0.5,0.4-0.9,0.9-0.9l9.4,0
			l0-9.4c0-0.5,0.4-0.9,0.9-0.9l4.6,0c0.5,0,0.9,0.4,0.9,0.9l0,9.4L237.4,200.3z M238.3,240.7v-4.8c0-0.4-0.4-0.8-0.8-0.8h-37.1
			c-0.4,0-0.8,0.4-0.8,0.8v4.8c0,0.4,0.4,0.8,0.8,0.8h37.1C238,241.6,238.3,241.2,238.3,240.7z M237.5,254.5h-24.2
			c-0.4,0-0.8-0.4-0.8-0.8v-4.8c0-0.4,0.4-0.8,0.8-0.8h24.2c0.4,0,0.8,0.4,0.8,0.8v4.8C238.3,254.1,238,254.5,237.5,254.5z
			 M270.9,72.2v-4.5c0-0.5-0.4-1-1-1h-55.4c-0.5,0-1,0.4-1,1v4.5c0,0.5,0.4,1,1,1H270C270.5,73.1,270.9,72.7,270.9,72.2z
			 M270.9,85.8v-4.5c0-0.5-0.4-1-1-1h-55.4c-0.5,0-1,0.4-1,1v4.5c0,0.5,0.4,1,1,1H270C270.5,86.8,270.9,86.3,270.9,85.8z
			 M269.9,100.4H229c-0.6,0-1-0.5-1-1V95c0-0.6,0.5-1,1-1h40.9c0.6,0,1,0.5,1,1v4.4C270.9,99.9,270.5,100.4,269.9,100.4z"/>
		<path fill="#112D4E" d="M267,107.5c1.8,0,3.2,1.4,3.2,3.2s-1.4,3.2-3.2,3.2s-3.2-1.4-3.2-3.2S265.3,107.5,267,107.5z M257.4,107.5c1.8,0,3.2,1.4,3.2,3.2s-1.4,3.2-3.2,3.2c-1.8,0-3.2-1.4-3.2-3.2S255.6,107.5,257.4,107.5z M247.7,107.5 c1.8,0,3.2,1.4,3.2,3.2s-1.4,3.2-3.2,3.2c-1.8,0-3.2-1.4-3.2-3.2S245.9,107.5,247.7,107.5z"/>
	</g>
</svg>
