<?xml version="1.0" encoding="utf-8"?>
<svg version="1.1" xmlns="http://www.w3.org/2000/svg" xmlns:xlink="http://www.w3.org/1999/xlink" x="0px" y="0px" viewBox="0 0 48 410" style="enable-background:new 0 0 48 410;" xml:space="preserve">
<g id="step_6">
	<circle fill="#FFF" cx="24" cy="374.5" r="23"/>
	<path fill="#7A7A7A" d="M18.5,380.9c-0.2,0.2-0.8,0.4-1.4,0.5c0.1-0.6,0.3-1.1,0.5-1.4c0.2-0.2,0.3-0.3,0.5-0.3c0.1,0,0.3,0.1,0.4,0.2
		c0.1,0.1,0.2,0.3,0.2,0.4C18.8,380.6,18.6,380.7,18.5,380.9 M16.2,378.6c-1.2,1.1-1.2,3.5-1.2,3.9c0,0.5,0.4,1,1,1h0
		c0.5,0,2.7-0.1,3.9-1.2c0.7-0.7,0.9-1.4,0.9-1.9c0-0.7-0.3-1.3-0.8-1.8C18.7,377.3,17.1,377.7,16.2,378.6 M30.3,368.2
		c0.3,0.3,0.5,0.7,0.5,1.2s-0.2,0.8-0.5,1.1c-0.3,0.3-0.7,0.5-1.2,0.5s-0.8-0.2-1.1-0.5c-0.3-0.3-0.5-0.7-0.5-1.1s0.2-0.8,0.5-1.2
		c0.3-0.3,0.7-0.5,1.1-0.5S30,367.9,30.3,368.2 M23.8,378.2l-3.5-3.5c1.8-4.7,6.2-9.8,13.2-9.7C33.7,373.4,26.8,377,23.8,378.2
		 M25.8,382.7c0-1-0.2-2-0.7-2.9c0.7-0.3,1.4-0.7,2.1-1C27.5,380.2,26.9,381.6,25.8,382.7 M15.8,372.7c1.1-1.1,2.4-1.7,3.9-1.4
		c-0.4,0.7-0.7,1.4-1,2.1C17.8,372.9,16.8,372.7,15.8,372.7 M35.5,363.9c0-0.5-0.4-0.9-0.9-0.9c-6.3-0.5-10.9,2.6-13.7,6.4
		c-1.6-0.5-3.2-0.3-4.7,0.5c-1.5,0.8-2.7,2.2-3.5,3.9c-0.2,0.4-0.1,0.9,0.2,1.2c0.3,0.3,0.8,0.4,1.2,0.2c1.6-0.8,3.4-0.7,4.5,0.4
		l4.4,4.4c0,0,0,0,0,0c1.1,1.1,1.2,2.9,0.4,4.5c-0.2,0.4-0.1,0.8,0.2,1.2c0.2,0.2,0.5,0.3,0.7,0.3c0.1,0,0.3,0,0.4-0.1
		c1.7-0.8,3.1-2,3.9-3.5c0.9-1.5,1-3.2,0.5-4.8c1.1-0.8,2.2-1.7,3-2.7C34.7,371.8,35.8,368.2,35.5,363.9 M41.3,391.1
		c4.1-4.3,6.7-10.2,6.7-16.6c0-13.2-10.8-24-24-24s-24,10.8-24,24c0,6.4,2.6,12.3,6.7,16.6C3.3,392.6,1,396,1,399.9
		c0,5.3,4.3,9.6,9.6,9.6h26.9c5.3,0,9.6-4.3,9.6-9.6C47,396,44.7,392.6,41.3,391.1z M1.9,374.5c0-12.2,9.9-22.1,22.1-22.1
		c12.2,0,22.1,9.9,22.1,22.1c0,6.3-2.6,11.9-6.9,16c-0.6-0.1-1.2-0.2-1.8-0.2H10.6c-0.6,0-1.2,0.1-1.8,0.2
		C4.6,386.4,1.9,380.8,1.9,374.5z"/>
	<path fill="#FFF" d="M13.4,402.3v-1.8c0-0.1,0-0.2-0.1-0.3c0,0-0.1-0.1-0.3-0.1h-0.9c-0.7,0-1-0.3-1-1v-1.9c0-0.7,0.4-1,1.1-1h1.1
		c0.7,0,1.1,0.3,1.1,1v1.1h-1v-0.9c0-0.1,0-0.2-0.1-0.3c0,0-0.1-0.1-0.3-0.1h-0.5c-0.1,0-0.2,0-0.3,0.1c0,0-0.1,0.1-0.1,0.3v1.6
		c0,0.1,0,0.2,0.1,0.3c0,0,0.1,0.1,0.3,0.1h0.8c0.7,0,1.1,0.3,1.1,1v2.1c0,0.7-0.4,1-1.1,1h-1.1c-0.7,0-1.1-0.3-1.1-1v-1.1h1v0.9
		c0,0.1,0,0.2,0.1,0.3c0,0,0.1,0.1,0.3,0.1h0.5c0.1,0,0.2,0,0.3-0.1C13.4,402.6,13.4,402.5,13.4,402.3z M18.4,396.3v0.8h-1.2v6.4h-1
		v-6.4h-1.2v-0.8H18.4z M20.1,402.7h2.1v0.8h-3.1v-7.2h3.1v0.8h-2v2.2h1.7v0.8h-1.7V402.7z M23,396.3h2.4c0.7,0,1.1,0.3,1.1,1v2.4
		c0,0.7-0.4,1-1.1,1H24v2.8h-1V396.3z M25.4,399.5v-2.1c0-0.1,0-0.2-0.1-0.3c0,0-0.1-0.1-0.3-0.1h-1v2.8h1c0.1,0,0.2,0,0.3-0.1
		C25.4,399.8,25.4,399.7,25.4,399.5z M32.4,397.3v5.2c0,0.7-0.4,1-1.1,1h-1.3c-0.7,0-1.1-0.3-1.1-1v-5.2c0-0.7,0.4-1,1.1-1h1.3
		C32,396.3,32.4,396.6,32.4,397.3z M31.3,402.3v-4.9c0-0.1,0-0.2-0.1-0.3c0,0-0.1-0.1-0.3-0.1h-0.6c-0.1,0-0.2,0-0.3,0.1
		c0,0-0.1,0.1-0.1,0.3v4.9c0,0.1,0,0.2,0.1,0.3c0,0,0.1,0.1,0.3,0.1H31c0.1,0,0.2,0,0.3-0.1C31.3,402.6,31.3,402.5,31.3,402.3z
		 M34.5,399.4h1.3c0.7,0,1.1,0.3,1.1,1v2.1c0,0.7-0.4,1-1.1,1h-1.2c-0.7,0-1.1-0.3-1.1-1v-5.2c0-0.7,0.4-1,1.1-1h1.2
		c0.7,0,1.1,0.3,1.1,1v1.2h-1v-1.1c0-0.1,0-0.2-0.1-0.3c0,0-0.1-0.1-0.3-0.1h-0.6c-0.1,0-0.2,0-0.3,0.1c0,0-0.1,0.1-0.1,0.3V399.4z
		 M35.8,402.3v-1.8c0-0.1,0-0.2-0.1-0.3c0,0-0.1-0.1-0.3-0.1h-1v2.1c0,0.1,0,0.2,0.1,0.3c0,0,0.1,0.1,0.3,0.1h0.6
		c0.1,0,0.2,0,0.3-0.1C35.8,402.6,35.8,402.5,35.8,402.3z"/>
</g>
<g class="step_5">
	<circle fill="#FFF" cx="24" cy="304.5" r="23"/>
	<path fill="#7A7A7A" d="M24.8,296.7c0.6,0.1,1-0.4,1.1-0.9c0-0.6-0.4-1-0.9-1.1c-0.3,0-0.7,0-1,0c-6.4,0-11.5,5.3-11.5,11.7
		c0,0.6,0.4,1,1,1c0.6,0,1-0.4,1-1c0-5.4,4.3-9.7,9.5-9.7C24.3,296.7,24.5,296.7,24.8,296.7 M32.4,298.4c-0.4-0.4-1-0.4-1.4-0.1
		c-0.4,0.4-0.4,1-0.1,1.4c1.7,1.8,2.6,4.2,2.6,6.6c0,0.6,0.4,1,1,1s1-0.4,1-1C35.5,303.4,34.4,300.6,32.4,298.4 M30.7,295.4
		l-4.9,10.5c-0.4,1.1-1.2,1.7-2,1.7c-0.7,0-1.3-0.3-1.6-0.9c-0.4-0.6-0.3-1.5,0.1-2.1l0,0l6.4-10.2c0.3-0.5,1-0.7,1.5-0.4
		C30.8,294.2,31,294.8,30.7,295.4 M41.3,321.1c4.1-4.3,6.7-10.2,6.7-16.6c0-13.2-10.8-24-24-24s-24,10.8-24,24
		c0,6.4,2.6,12.3,6.7,16.6C3.3,322.6,1,326,1,329.9c0,5.3,4.3,9.6,9.6,9.6h26.9c5.3,0,9.6-4.3,9.6-9.6C47,326,44.7,322.6,41.3,321.1
		z M1.9,304.5c0-12.2,9.9-22.1,22.1-22.1c12.2,0,22.1,9.9,22.1,22.1c0,6.3-2.6,11.9-6.9,16c-0.6-0.1-1.2-0.2-1.8-0.2H10.6
		c-0.6,0-1.2,0.1-1.8,0.2C4.6,316.4,1.9,310.8,1.9,304.5z"/>
	<path fill="#FFF" d="M13.5,332.3v-1.8c0-0.1,0-0.2-0.1-0.3c0,0-0.1-0.1-0.3-0.1h-0.9c-0.7,0-1-0.3-1-1v-1.9c0-0.7,0.4-1,1.1-1h1.1
		c0.7,0,1.1,0.3,1.1,1v1.1h-1v-0.9c0-0.1,0-0.2-0.1-0.3c0,0-0.1-0.1-0.3-0.1h-0.5c-0.1,0-0.2,0-0.3,0.1c0,0-0.1,0.1-0.1,0.3v1.6
		c0,0.1,0,0.2,0.1,0.3c0,0,0.1,0.1,0.3,0.1h0.8c0.7,0,1.1,0.3,1.1,1v2.1c0,0.7-0.4,1-1.1,1h-1.1c-0.7,0-1.1-0.3-1.1-1v-1.1h1v0.9
		c0,0.1,0,0.2,0.1,0.3c0,0,0.1,0.1,0.3,0.1h0.5c0.1,0,0.2,0,0.3-0.1C13.5,332.6,13.5,332.5,13.5,332.3z M18.5,326.3v0.8h-1.2v6.4h-1
		v-6.4H15v-0.8H18.5z M20.2,332.7h2.1v0.8h-3.1v-7.2h3.1v0.8h-2v2.2h1.7v0.8h-1.7V332.7z M23.1,326.3h2.4c0.7,0,1.1,0.3,1.1,1v2.4
		c0,0.7-0.4,1-1.1,1h-1.3v2.8h-1V326.3z M25.5,329.5v-2.1c0-0.1,0-0.2-0.1-0.3c0,0-0.1-0.1-0.3-0.1h-1v2.8h1c0.1,0,0.2,0,0.3-0.1
		C25.5,329.8,25.5,329.7,25.5,329.5z M32.5,327.3v5.2c0,0.7-0.4,1-1.1,1h-1.3c-0.7,0-1.1-0.3-1.1-1v-5.2c0-0.7,0.4-1,1.1-1h1.3
		C32.1,326.3,32.5,326.6,32.5,327.3z M31.4,332.3v-4.9c0-0.1,0-0.2-0.1-0.3c0,0-0.1-0.1-0.3-0.1h-0.6c-0.1,0-0.2,0-0.3,0.1
		c0,0-0.1,0.1-0.1,0.3v4.9c0,0.1,0,0.2,0.1,0.3c0,0,0.1,0.1,0.3,0.1h0.6c0.1,0,0.2,0,0.3-0.1C31.4,332.6,31.4,332.5,31.4,332.3z
		 M34.5,329h1.1c0.7,0,1.1,0.3,1.1,1v2.5c0,0.7-0.4,1-1.1,1h-1.1c-0.7,0-1.1-0.3-1.1-1v-1.3h1v1.1c0,0.1,0,0.2,0.1,0.3
		c0,0,0.1,0.1,0.3,0.1h0.5c0.1,0,0.2,0,0.3-0.1c0,0,0.1-0.1,0.1-0.3v-2.2c0-0.1,0-0.2-0.1-0.3s-0.1-0.1-0.3-0.1h-1.8v-3.5h3.2v0.8
		h-2.2V329z"/>
</g>
<g class="step_4">
	<circle fill="#FFF" cx="24" cy="234.5" r="23"/>
	<path fill="#7A7A7A" d="M27.5,236.7c0.2,0.2,0.5,0.3,0.7,0.3c0.3,0,0.5-0.1,0.7-0.3c0.4-0.4,0.4-1,0-1.4l-4.2-4.3
		c-0.2-0.2-0.4-0.3-0.7-0.3c-0.3,0-0.5,0.1-0.7,0.3l-4.2,4.3c-0.4,0.4-0.4,1,0,1.4c0.4,0.4,1,0.4,1.4,0l2.5-2.5l0,9.4
		c0,0.6,0.5,1,1,1h0c0.6,0,1-0.5,1-1l0-9.3L27.5,236.7L27.5,236.7z M35.5,235.9c-0.2,2.2-1.8,4.6-5.2,4.6c-1.5,0-2.3,0-2.3,0
		c-0.6,0-1-0.4-1-1c0-0.6,0.5-0.9,1-0.9h0c0,0,0.8,0,2.3,0c2.1,0,3.1-1.4,3.2-2.7c0.1-1.4-0.8-2.9-2.9-3.2c-0.3,0-0.5-0.2-0.7-0.4
		c-0.2-0.2-0.2-0.5-0.1-0.8c0.3-1.2,0-2.1-0.8-2.5c-0.7-0.4-1.7-0.4-2.6,0.5c-0.2,0.2-0.5,0.3-0.9,0.3c-0.3,0-0.6-0.2-0.7-0.5
		c-1.4-2.7-3.7-2.9-5.2-2.2c-1.4,0.7-2.6,2.4-1.7,4.5c0.1,0.3,0.1,0.6,0,0.8c-0.1,0.3-0.3,0.5-0.6,0.5c-3,0.9-2.9,2.9-2.8,3.5
		c0.2,1.1,1,2.2,2.4,2.2l3.1,0c0.6,0,1,0.5,1,1c0,0.6-0.5,1-1,1h0l-3.1-0.1c-2.2,0-4-1.7-4.4-4c-0.3-1.8,0.5-4.1,3.3-5.4
		c-0.6-2.8,0.9-5.1,3-6.1c2.2-1,5.2-0.7,7.2,2.1c1.3-0.7,2.7-0.7,4-0.1c1,0.6,2,1.9,1.9,3.7C34.6,231.6,35.7,233.9,35.5,235.9
		L35.5,235.9z M41.3,251.1c4.1-4.3,6.7-10.2,6.7-16.6c0-13.2-10.8-24-24-24s-24,10.8-24,24c0,6.4,2.6,12.3,6.7,16.6
		C3.3,252.6,1,256,1,259.9c0,5.3,4.3,9.6,9.6,9.6h26.9c5.3,0,9.6-4.3,9.6-9.6C47,256,44.7,252.6,41.3,251.1z M1.9,234.5
		c0-12.2,9.9-22.1,22.1-22.1c12.2,0,22.1,9.9,22.1,22.1c0,6.3-2.6,11.9-6.9,16c-0.6-0.1-1.2-0.2-1.8-0.2H10.6
		c-0.6,0-1.2,0.1-1.8,0.2C4.6,246.4,1.9,240.8,1.9,234.5z"/>
	<path fill="#FFF" d="M13.3,262.3v-1.8c0-0.1,0-0.2-0.1-0.3c0,0-0.1-0.1-0.3-0.1h-0.9c-0.7,0-1-0.3-1-1v-1.9c0-0.7,0.4-1,1.1-1h1.1
		c0.7,0,1.1,0.3,1.1,1v1.1h-1v-0.9c0-0.1,0-0.2-0.1-0.3c0,0-0.1-0.1-0.3-0.1h-0.5c-0.1,0-0.2,0-0.3,0.1c0,0-0.1,0.1-0.1,0.3v1.6
		c0,0.1,0,0.2,0.1,0.3c0,0,0.1,0.1,0.3,0.1h0.8c0.7,0,1.1,0.3,1.1,1v2.1c0,0.7-0.4,1-1.1,1h-1.1c-0.7,0-1.1-0.3-1.1-1v-1.1h1v0.9
		c0,0.1,0,0.2,0.1,0.3c0,0,0.1,0.1,0.3,0.1h0.5c0.1,0,0.2,0,0.3-0.1C13.2,262.6,13.3,262.5,13.3,262.3z M18.3,256.3v0.8h-1.2v6.4h-1
		v-6.4h-1.2v-0.8H18.3z M20,262.7h2.1v0.8h-3.1v-7.2H22v0.8h-2v2.2h1.7v0.8H20V262.7z M22.9,256.3h2.4c0.7,0,1.1,0.3,1.1,1v2.4
		c0,0.7-0.4,1-1.1,1h-1.3v2.8h-1V256.3z M25.3,259.5v-2.1c0-0.1,0-0.2-0.1-0.3c0,0-0.1-0.1-0.3-0.1h-1v2.8h1c0.1,0,0.2,0,0.3-0.1
		C25.2,259.8,25.3,259.7,25.3,259.5z M32.2,257.3v5.2c0,0.7-0.4,1-1.1,1h-1.3c-0.7,0-1.1-0.3-1.1-1v-5.2c0-0.7,0.4-1,1.1-1h1.3
		C31.9,256.3,32.2,256.6,32.2,257.3z M31.2,262.3v-4.9c0-0.1,0-0.2-0.1-0.3c0,0-0.1-0.1-0.3-0.1h-0.6c-0.1,0-0.2,0-0.3,0.1
		c0,0-0.1,0.1-0.1,0.3v4.9c0,0.1,0,0.2,0.1,0.3c0,0,0.1,0.1,0.3,0.1h0.6c0.1,0,0.2,0,0.3-0.1C31.2,262.6,31.2,262.5,31.2,262.3z
		 M37,261.2v0.9h-0.6v1.4h-1v-1.4h-2.5v-0.9l2.1-4.9h1l-2.1,4.9h1.5v-1.4h1v1.4H37z"/>
</g>
<g class="step_3">
	<circle fill="#FFF" cx="24" cy="164.5" r="23"/>
	<path fill="#7A7A7A" d="M23.1,174.2c0.2,0,0.5,0,0.8,0H24c0.3,0,0.5,0,0.8,0l0.2-1.7c0.1-0.4,0.3-0.7,0.7-0.7c0.8-0.2,1.5-0.5,2.2-0.9
		c0.2-0.1,0.4-0.2,0.7-0.1c0.1,0,0.3,0.1,0.4,0.2l1.3,1c0.2-0.2,0.4-0.3,0.6-0.5l0.1-0.1c0.2-0.2,0.4-0.4,0.5-0.6l-1-1.3
		c-0.2-0.3-0.2-0.7,0-1c0.4-0.7,0.7-1.4,0.9-2.1c0.1-0.4,0.4-0.7,0.8-0.7l1.7-0.2c0-0.2,0-0.5,0-0.8v-0.1c0-0.3,0-0.5,0-0.8
		l-1.6-0.2c-0.4-0.1-0.7-0.3-0.7-0.7c-0.2-0.8-0.5-1.5-0.9-2.2c0-0.1-0.1-0.1-0.1-0.2c-0.1-0.3-0.1-0.6,0.1-0.8l1-1.3
		c-0.2-0.2-0.3-0.4-0.5-0.6l-0.1-0.1c-0.2-0.2-0.4-0.4-0.6-0.5l-1.3,1c-0.3,0.2-0.7,0.2-1.1,0c-0.7-0.4-1.4-0.7-2.1-0.9
		c-0.4-0.1-0.6-0.4-0.7-0.7l-0.2-1.7c-0.2,0-0.5,0-0.8,0H24c-0.3,0-0.5,0-0.8,0l-0.2,1.7c-0.1,0.4-0.4,0.7-0.7,0.8
		c-0.8,0.2-1.5,0.5-2.1,0.9c-0.2,0.1-0.5,0.2-0.7,0.1c-0.1,0-0.2-0.1-0.3-0.2l-1.3-1c-0.2,0.2-0.4,0.3-0.6,0.5l-0.1,0.1
		c-0.2,0.2-0.4,0.4-0.5,0.6l1,1.3c0.2,0.3,0.2,0.7,0.1,1c0,0,0,0.1-0.1,0.1c-0.4,0.7-0.7,1.4-0.9,2.1c-0.1,0.4-0.4,0.6-0.7,0.7
		l-1.7,0.2c0,0.2,0,0.5,0,0.8v0.1c0,0.3,0,0.5,0,0.8l1.7,0.2c0.4,0.1,0.7,0.4,0.8,0.8c0,0,0,0,0,0c0.2,0.7,0.5,1.4,0.9,2.1
		c0.1,0.2,0.2,0.5,0.1,0.7c0,0.1-0.1,0.2-0.2,0.3l-1,1.3c0.2,0.2,0.3,0.4,0.5,0.6l0.1,0.1c0.2,0.2,0.4,0.4,0.6,0.5l1.3-1
		c0.3-0.3,0.8-0.2,1.1,0c0.6,0.4,1.3,0.7,2.1,0.9c0.4,0.1,0.6,0.4,0.7,0.7L23.1,174.2z M24,176h-0.1c-0.9,0-1.6-0.1-1.7-0.1
		c-0.4-0.1-0.7-0.4-0.8-0.8l-0.2-1.8c-0.5-0.2-1.1-0.4-1.6-0.7l-1.4,1.1c-0.3,0.2-0.8,0.2-1.1,0c0,0-0.6-0.5-1.2-1.1l-0.1-0.1
		c-0.6-0.6-1.1-1.2-1.1-1.2c-0.2-0.3-0.2-0.8,0-1.1l1.1-1.4c-0.3-0.5-0.5-1-0.6-1.6l-1.8-0.2c-0.4-0.1-0.7-0.4-0.8-0.8
		c0,0-0.1-0.8-0.1-1.7v-0.1c0-0.9,0.1-1.6,0.1-1.7c0.1-0.4,0.4-0.7,0.8-0.8l1.8-0.2c0.2-0.5,0.4-1.1,0.7-1.6l-1.1-1.4
		c-0.2-0.3-0.2-0.8,0-1.1c0,0,0.5-0.6,1.1-1.2l0.1-0.1c0.6-0.6,1.2-1.1,1.2-1.1c0.3-0.2,0.8-0.2,1.1,0l1.4,1.1
		c0.5-0.3,1-0.5,1.6-0.6l0.2-1.8c0.1-0.4,0.4-0.7,0.8-0.8c0,0,0.8-0.1,1.7-0.1h0.1c0.9,0,1.6,0.1,1.7,0.1c0.4,0.1,0.7,0.4,0.8,0.8
		l0.2,1.8c0.5,0.2,1.1,0.4,1.6,0.7l1.4-1.1c0.3-0.2,0.8-0.2,1.1,0c0,0,0.6,0.5,1.2,1.1l0.1,0.1c0.6,0.6,1.1,1.2,1.1,1.2
		c0.2,0.3,0.2,0.8,0,1.1l-1.1,1.4c0.3,0.5,0.5,1,0.6,1.6l1.8,0.3c0.4,0.1,0.7,0.4,0.8,0.8c0,0,0.1,0.8,0.1,1.7v0.1
		c0,0.9-0.1,1.6-0.1,1.7c-0.1,0.4-0.4,0.7-0.8,0.8l-1.8,0.2c-0.2,0.5-0.4,1.1-0.7,1.6l1.1,1.4c0.2,0.3,0.2,0.8,0,1.1
		c0,0-0.5,0.6-1.1,1.2l-0.1,0.1c-0.6,0.6-1.2,1.1-1.2,1.1c-0.3,0.2-0.8,0.2-1.1,0l-1.4-1.1c-0.5,0.3-1,0.5-1.6,0.6l-0.3,1.8
		c-0.1,0.4-0.4,0.7-0.8,0.8C25.6,175.9,24.9,176,24,176L24,176z M24,161.4c-1.7,0-3.1,1.4-3.1,3.1c0,1.7,1.4,3.1,3.1,3.1
		c1.7,0,3.1-1.4,3.1-3.1C27.1,162.8,25.7,161.4,24,161.4L24,161.4z M24,169.3c-2.7,0-4.8-2.2-4.8-4.8c0-2.7,2.2-4.8,4.8-4.8
		c2.7,0,4.8,2.2,4.8,4.8C28.8,167.2,26.7,169.3,24,169.3L24,169.3z M41.3,181.1c4.1-4.3,6.7-10.2,6.7-16.6c0-13.2-10.8-24-24-24
		s-24,10.8-24,24c0,6.4,2.6,12.3,6.7,16.6C3.3,182.6,1,186,1,189.9c0,5.3,4.3,9.6,9.6,9.6h26.9c5.3,0,9.6-4.3,9.6-9.6
		C47,186,44.7,182.6,41.3,181.1z M1.9,164.5c0-12.2,9.9-22.1,22.1-22.1c12.2,0,22.1,9.9,22.1,22.1c0,6.3-2.6,11.9-6.9,16
		c-0.6-0.1-1.2-0.2-1.8-0.2H10.6c-0.6,0-1.2,0.1-1.8,0.2C4.6,176.4,1.9,170.8,1.9,164.5z"/>
	<path fill="#FFF" d="M13.6,192.3v-1.8c0-0.1,0-0.2-0.1-0.3s-0.1-0.1-0.3-0.1h-0.9c-0.7,0-1-0.3-1-1v-1.9c0-0.7,0.4-1,1.1-1h1.1
		c0.7,0,1.1,0.3,1.1,1v1.1h-1v-0.9c0-0.1,0-0.2-0.1-0.3c0,0-0.1-0.1-0.3-0.1h-0.5c-0.1,0-0.2,0-0.3,0.1c0,0-0.1,0.1-0.1,0.3v1.6
		c0,0.1,0,0.2,0.1,0.3c0,0,0.1,0.1,0.3,0.1h0.8c0.7,0,1.1,0.3,1.1,1v2.1c0,0.7-0.4,1-1.1,1h-1.1c-0.7,0-1.1-0.3-1.1-1v-1.1h1v0.9
		c0,0.1,0,0.2,0.1,0.3c0,0,0.1,0.1,0.3,0.1h0.5c0.1,0,0.2,0,0.3-0.1C13.6,192.6,13.6,192.5,13.6,192.3z M18.6,186.3v0.8h-1.2v6.4h-1
		v-6.4h-1.2v-0.8H18.6z M20.3,192.7h2.1v0.8h-3.1v-7.2h3.1v0.8h-2v2.2h1.7v0.8h-1.7V192.7z M23.2,186.3h2.4c0.7,0,1.1,0.3,1.1,1v2.4
		c0,0.7-0.4,1-1.1,1h-1.3v2.8h-1V186.3z M25.6,189.5v-2.1c0-0.1,0-0.2-0.1-0.3c0,0-0.1-0.1-0.3-0.1h-1v2.8h1c0.1,0,0.2,0,0.3-0.1
		C25.6,189.8,25.6,189.7,25.6,189.5z M32.6,187.3v5.2c0,0.7-0.4,1-1.1,1h-1.3c-0.7,0-1.1-0.3-1.1-1v-5.2c0-0.7,0.4-1,1.1-1h1.3
		C32.2,186.3,32.6,186.6,32.6,187.3z M31.5,192.3v-4.9c0-0.1,0-0.2-0.1-0.3c0,0-0.1-0.1-0.3-0.1h-0.6c-0.1,0-0.2,0-0.3,0.1
		c0,0-0.1,0.1-0.1,0.3v4.9c0,0.1,0,0.2,0.1,0.3c0,0,0.1,0.1,0.3,0.1h0.6c0.1,0,0.2,0,0.3-0.1C31.5,192.6,31.5,192.5,31.5,192.3z
		 M34.5,187.5v1.1h-1v-1.2c0-0.7,0.4-1,1.1-1h1.1c0.7,0,1.1,0.3,1.1,1v1.8c0,0.4-0.2,0.6-0.5,0.7c0.3,0.1,0.5,0.3,0.5,0.7v2
		c0,0.7-0.4,1-1.1,1h-1.1c-0.7,0-1.1-0.3-1.1-1v-1.2h1v1.1c0,0.1,0,0.2,0.1,0.3c0,0,0.1,0.1,0.3,0.1h0.4c0.1,0,0.2,0,0.3-0.1
		c0,0,0.1-0.1,0.1-0.3v-1.7c0-0.1,0-0.2-0.1-0.3c0,0-0.1-0.1-0.3-0.1h-0.9v-0.8h0.9c0.1,0,0.2,0,0.3-0.1c0,0,0.1-0.1,0.1-0.3v-1.6
		c0-0.1,0-0.2-0.1-0.3c0,0-0.1-0.1-0.3-0.1h-0.4c-0.1,0-0.2,0-0.3,0.1C34.5,187.2,34.5,187.3,34.5,187.5z"/>
</g>
<g class="step_2">
	<circle fill="#FFF" cx="24" cy="94.5" r="23"/>
	<path fill="#7A7A7A" d="M25.3,95.7c0.9,0,1.6-0.7,1.6-1.6c0-0.9-0.7-1.6-1.6-1.6s-1.6,0.7-1.6,1.6C23.8,95,24.5,95.7,25.3,95.7
		L25.3,95.7z M29.6,102.1v-1.9l-1.4-1.4l-1.9,1.7c-0.3,0.3-0.8,0.3-1.2,0l-4.9-4.3l-4.9,4v1.9H29.6z M15.3,91.6v6.3l4.3-3.5
		c0.3-0.3,0.9-0.3,1.2,0l4.9,4.3l2-1.7c0.3-0.3,0.7-0.3,1,0l0.9,0.9v-6.3H15.3z M31.9,103.1c0,0.6-0.5,1-1,1H14.2c-0.6,0-1-0.5-1-1
		V90.5c0-0.6,0.5-1,1-1h16.6c0.6,0,1,0.5,1,1V103.1z M36.7,89.1l-2.4,11.7c-0.1,0.4-0.4,0.6-0.8,0.6c-0.1,0-0.1,0-0.2,0
		c-0.4-0.1-0.7-0.5-0.6-0.9l2.3-11l-14.7-3L20,88.2c-0.1,0.4-0.5,0.7-0.9,0.6c-0.4-0.1-0.7-0.5-0.6-0.9l0.5-2.4
		c0.1-0.4,0.5-0.7,0.9-0.6l16.2,3.3c0.2,0,0.4,0.2,0.5,0.3C36.7,88.7,36.7,88.9,36.7,89.1L36.7,89.1z M41.3,111.1
		c4.1-4.3,6.7-10.2,6.7-16.6c0-13.2-10.8-24-24-24S0,81.3,0,94.5c0,6.4,2.6,12.3,6.7,16.6C3.3,112.6,1,116,1,119.9
		c0,5.3,4.3,9.6,9.6,9.6h26.9c5.3,0,9.6-4.3,9.6-9.6C47,116,44.7,112.6,41.3,111.1z M1.9,94.5c0-12.2,9.9-22.1,22.1-22.1
		c12.2,0,22.1,9.9,22.1,22.1c0,6.3-2.6,11.9-6.9,16c-0.6-0.1-1.2-0.2-1.8-0.2H10.6c-0.6,0-1.2,0.1-1.8,0.2
		C4.6,106.4,1.9,100.8,1.9,94.5z"/>
	<path fill="#FFF" d="M13.6,122.3v-1.8c0-0.1,0-0.2-0.1-0.3s-0.1-0.1-0.3-0.1h-0.9c-0.7,0-1-0.3-1-1v-1.9c0-0.7,0.4-1,1.1-1h1.1
		c0.7,0,1.1,0.3,1.1,1v1.1h-1v-0.9c0-0.1,0-0.2-0.1-0.3c0,0-0.1-0.1-0.3-0.1h-0.5c-0.1,0-0.2,0-0.3,0.1c0,0-0.1,0.1-0.1,0.3v1.6
		c0,0.1,0,0.2,0.1,0.3c0,0,0.1,0.1,0.3,0.1h0.8c0.7,0,1.1,0.3,1.1,1v2.1c0,0.7-0.4,1-1.1,1h-1.1c-0.7,0-1.1-0.3-1.1-1v-1.1h1v0.9
		c0,0.1,0,0.2,0.1,0.3c0,0,0.1,0.1,0.3,0.1h0.5c0.1,0,0.2,0,0.3-0.1C13.6,122.6,13.6,122.5,13.6,122.3z M18.6,116.3v0.8h-1.2v6.4h-1
		v-6.4h-1.2v-0.8H18.6z M20.3,122.7h2.1v0.8h-3.1v-7.2h3.1v0.8h-2v2.2H22v0.8h-1.7V122.7z M23.2,116.3h2.4c0.7,0,1.1,0.3,1.1,1v2.4
		c0,0.7-0.4,1-1.1,1h-1.3v2.8h-1V116.3z M25.6,119.5v-2.1c0-0.1,0-0.2-0.1-0.3c0,0-0.1-0.1-0.3-0.1h-1v2.8h1c0.1,0,0.2,0,0.3-0.1
		C25.6,119.8,25.6,119.7,25.6,119.5z M32.6,117.3v5.2c0,0.7-0.4,1-1.1,1h-1.3c-0.7,0-1.1-0.3-1.1-1v-5.2c0-0.7,0.4-1,1.1-1h1.3
		C32.2,116.3,32.6,116.6,32.6,117.3z M31.6,122.3v-4.9c0-0.1,0-0.2-0.1-0.3c0,0-0.1-0.1-0.3-0.1h-0.6c-0.1,0-0.2,0-0.3,0.1
		c0,0-0.1,0.1-0.1,0.3v4.9c0,0.1,0,0.2,0.1,0.3c0,0,0.1,0.1,0.3,0.1h0.6c0.1,0,0.2,0,0.3-0.1C31.5,122.6,31.6,122.5,31.6,122.3z
		 M34.5,117.5v1.2h-1v-1.3c0-0.7,0.4-1,1.1-1h1c0.7,0,1.1,0.3,1.1,1v0.7c0,0.5-0.1,1.1-0.4,1.6l-1.6,3.1h2v0.8h-3.2v-0.8l1.8-3.3
		c0.2-0.4,0.3-0.9,0.3-1.4v-0.5c0-0.1,0-0.2-0.1-0.3c0,0-0.1-0.1-0.3-0.1h-0.4c-0.1,0-0.2,0-0.3,0.1
		C34.5,117.2,34.5,117.3,34.5,117.5z"/>
</g>
<g class="step_1">
	<circle fill="#FFF" cx="24" cy="24.5" r="23"/>
	<path fill="#7A7A7A" d="M28,20.6c0,0.5-0.4,0.8-0.9,0.8c0,0-0.1,0-0.1,0c-0.5,0-0.8-0.5-0.8-1c0.1-1.4-1.1-1.9-1.3-2
		c-0.4-0.2-0.7-0.7-0.5-1.1c0.2-0.5,0.7-0.7,1.1-0.5C26.5,17.1,28.2,18.3,28,20.6 M26.2,34.7c0,0.6-0.4,1-0.9,1.1L22.8,36
		c0,0-0.1,0-0.1,0c-0.5,0-1-0.4-1-0.9c0-0.6,0.4-1,0.9-1.1l2.5-0.2C25.7,33.8,26.2,34.2,26.2,34.7 M28.4,31.6c0,0.6-0.4,1-0.9,1.1
		l-6.8,0.5c0,0,0,0-0.1,0c-0.5,0-1-0.4-1-0.9c0-0.6,0.4-1,0.9-1.1l6.8-0.5C27.9,30.6,28.4,31,28.4,31.6 M27,25.1
		c-0.3,0.2-0.5,0.5-0.5,0.9v1.5l-5,0.4V26c0-0.4-0.1-0.7-0.5-0.9c-1.7-1-2.5-2.5-2.5-4.6c0-3.1,2.5-5.6,5.5-5.6s5.5,2.5,5.5,5.6
		C29.5,22.6,28.6,24.3,27,25.1 M24,13c-4.1,0-7.5,3.4-7.5,7.6c0,2.6,1,4.6,3,6V29c0,0.3,0.2,0.5,0.4,0.7c0.2,0.2,0.5,0.3,0.7,0.3
		c0,0,0.1,0,0.1,0l6.9-0.6c0.5,0,1-0.5,1-1v-1.9c1.8-1.3,3-3.5,3-6C31.5,16.4,28.1,13,24,13 M41.3,41.1c4.1-4.3,6.7-10.2,6.7-16.6
		c0-13.2-10.8-24-24-24S0,11.3,0,24.5c0,6.4,2.6,12.3,6.7,16.6C3.3,42.6,1,46,1,49.9c0,5.3,4.3,9.6,9.6,9.6h26.9
		c5.3,0,9.6-4.3,9.6-9.6C47,46,44.7,42.6,41.3,41.1z M1.9,24.5C1.9,12.3,11.8,2.4,24,2.4c12.2,0,22.1,9.9,22.1,22.1
		c0,6.3-2.6,11.9-6.9,16c-0.6-0.1-1.2-0.2-1.8-0.2H10.6c-0.6,0-1.2,0.1-1.8,0.2C4.6,36.4,1.9,30.8,1.9,24.5z"/>
	<path fill="#FFF" d="M14.3,52.3v-1.8c0-0.1,0-0.2-0.1-0.3c0,0-0.1-0.1-0.3-0.1h-0.9c-0.7,0-1-0.3-1-1v-1.9c0-0.7,0.4-1,1.1-1h1.1
		c0.7,0,1.1,0.3,1.1,1v1.1h-1v-0.9c0-0.1,0-0.2-0.1-0.3c0,0-0.1-0.1-0.3-0.1h-0.5c-0.1,0-0.2,0-0.3,0.1c0,0-0.1,0.1-0.1,0.3v1.6
		c0,0.1,0,0.2,0.1,0.3c0,0,0.1,0.1,0.3,0.1h0.8c0.7,0,1.1,0.3,1.1,1v2.1c0,0.7-0.4,1-1.1,1h-1.1c-0.7,0-1.1-0.3-1.1-1v-1.1h1v0.9
		c0,0.1,0,0.2,0.1,0.3c0,0,0.1,0.1,0.3,0.1H14c0.1,0,0.2,0,0.3-0.1C14.3,52.6,14.3,52.5,14.3,52.3z M19.3,46.3v0.8h-1.2v6.4h-1v-6.4
		h-1.2v-0.8H19.3z M21,52.7h2.1v0.8H20v-7.2H23v0.8h-2v2.2h1.7v0.8H21V52.7z M23.9,46.3h2.4c0.7,0,1.1,0.3,1.1,1v2.4
		c0,0.7-0.4,1-1.1,1h-1.3v2.8h-1V46.3z M26.3,49.5v-2.1c0-0.1,0-0.2-0.1-0.3c0,0-0.1-0.1-0.3-0.1h-1v2.8h1c0.1,0,0.2,0,0.3-0.1
		C26.3,49.8,26.3,49.7,26.3,49.5z M33.3,47.3v5.2c0,0.7-0.4,1-1.1,1H31c-0.7,0-1.1-0.3-1.1-1v-5.2c0-0.7,0.4-1,1.1-1h1.3
		C32.9,46.3,33.3,46.6,33.3,47.3z M32.2,52.3v-4.9c0-0.1,0-0.2-0.1-0.3s-0.1-0.1-0.3-0.1h-0.6c-0.1,0-0.2,0-0.3,0.1
		c0,0-0.1,0.1-0.1,0.3v4.9c0,0.1,0,0.2,0.1,0.3c0,0,0.1,0.1,0.3,0.1h0.6c0.1,0,0.2,0,0.3-0.1C32.2,52.6,32.2,52.5,32.2,52.3z
		 M35.9,46.3v7.2h-1v-6.4h-0.8v-0.8H35.9z"/>
</g>
</svg>