<svg enable-background="new 0 0 80 80" viewBox="0 0 80 80" xmlns="http://www.w3.org/2000/svg" xmlns:xlink="http://www.w3.org/1999/xlink"><linearGradient id="a" gradientTransform="matrix(80 0 0 -80 16985 23545)" gradientUnits="userSpaceOnUse" x1="-211.3357" x2="-212.289" y1="293.8125" y2="293.8125"><stop offset="0" stop-color="#fbe8e7" stop-opacity=".2"/><stop offset="1" stop-color="#fff" stop-opacity=".5"/></linearGradient><path d="m0 75h5v5h-5zm15-15h5v5h-5zm0 15h5v5h-5zm15-30h5v5h-5zm0 15h5v5h-5zm0 15h5v5h-5zm15-45h5v5h-5zm0 15h5v5h-5zm0 15h5v5h-5zm0 15h5v5h-5zm15-60h5v5h-5zm0 15h5v5h-5zm0 15h5v5h-5zm0 15h5v5h-5zm0 15h5v5h-5zm15-75h5v5h-5zm0 15h5v5h-5zm0 15h5v5h-5zm0 15h5v5h-5zm0 15h5v5h-5zm0 15h5v5h-5z" fill="url(#a)"/></svg>