<?xml version="1.0" standalone="no"?>
<!DOCTYPE svg PUBLIC "-//W3C//DTD SVG 20010904//EN"
 "http://www.w3.org/TR/2001/REC-SVG-20010904/DTD/svg10.dtd">
<svg version="1.0" xmlns="http://www.w3.org/2000/svg"
 width="512.000000pt" height="512.000000pt" viewBox="0 0 512.000000 512.000000"
 preserveAspectRatio="xMidYMid meet">
<metadata>
Created by potrace 1.11, written by Peter Selinger 2001-2013
</metadata>
<g transform="translate(0.000000,512.000000) scale(0.100000,-0.100000)"
fill="#000000" stroke="none">
<path d="M2278 4165 c-2 -2 -48 -6 -103 -10 -55 -3 -116 -7 -135 -10 -19 -2
-57 -7 -84 -10 -26 -3 -69 -8 -95 -11 -25 -2 -122 -18 -216 -34 -223 -39 -229
-40 -237 -48 -4 -4 160 -68 365 -142 l371 -135 416 0 415 0 350 128 c340 124
369 135 390 136 6 1 6 4 0 10 -15 14 -329 72 -470 86 -33 4 -67 8 -75 10 -8 2
-55 7 -105 10 -49 4 -101 9 -115 12 -29 6 -666 14 -672 8z"/>
<path d="M1274 3953 c3 -10 8 -38 11 -63 12 -117 43 -368 50 -408 2 -13 7 -53
10 -90 4 -37 8 -74 10 -82 2 -8 7 -42 10 -75 3 -33 8 -71 10 -85 2 -14 6 -43
9 -65 12 -99 28 -221 32 -234 4 -14 634 818 634 838 0 6 -5 11 -12 11 -6 0
-118 39 -247 86 -130 47 -279 102 -331 121 -52 18 -112 41 -133 49 -49 18 -60
18 -53 -3z"/>
<path d="M3620 3894 c-113 -42 -214 -79 -225 -84 -43 -19 -304 -110 -314 -110
-6 0 -11 -5 -11 -11 0 -8 572 -782 627 -848 7 -9 11 7 17 71 4 37 9 76 11 87
2 11 6 46 10 78 3 33 7 70 10 84 2 13 6 47 10 74 7 61 24 197 30 245 3 19 7
58 10 85 3 28 7 57 9 65 3 8 8 46 11 84 3 38 8 72 9 75 2 3 7 33 10 66 4 33 8
72 10 88 2 15 -1 27 -8 26 -6 0 -103 -34 -216 -75z"/>
<path d="M970 3653 c-243 -315 -334 -433 -436 -568 l-76 -100 129 -32 c70 -18
137 -35 148 -37 28 -6 546 -135 568 -142 17 -5 18 -1 11 53 -3 32 -8 65 -9 73
-2 8 -6 44 -9 80 -4 36 -9 76 -11 90 -2 14 -7 45 -10 70 -3 25 -7 61 -10 80
-3 19 -7 53 -9 75 -7 54 -14 111 -20 160 -3 22 -13 96 -21 165 -32 259 -37
295 -39 297 -1 1 -94 -118 -206 -264z"/>
<path d="M3939 3898 c0 -13 -2 -32 -4 -43 -2 -11 -7 -47 -11 -80 -3 -33 -7
-67 -9 -75 -3 -15 -12 -88 -20 -160 -2 -19 -7 -55 -10 -80 -3 -25 -8 -62 -10
-82 -10 -81 -15 -119 -20 -155 -3 -21 -7 -59 -10 -86 -3 -26 -7 -60 -9 -75 -3
-15 -8 -52 -11 -82 -3 -30 -8 -66 -10 -80 -16 -105 -16 -133 -3 -128 7 3 201
52 430 109 l417 104 -14 22 c-16 24 -515 675 -524 683 -4 3 -40 50 -81 105
-97 130 -100 133 -101 103z"/>
<path d="M2248 3662 l-36 -3 39 -112 c22 -62 42 -119 46 -127 3 -8 7 -19 9
-25 1 -5 20 -59 42 -120 38 -103 194 -542 205 -575 4 -12 6 -11 13 5 24 56
341 951 338 954 -4 4 -605 7 -656 3z"/>
<path d="M1970 3404 c-80 -107 -153 -205 -162 -217 -9 -12 -37 -49 -62 -82
-25 -33 -49 -64 -53 -70 -5 -5 -19 -26 -33 -45 -13 -19 -27 -37 -30 -40 -10
-10 -150 -198 -150 -203 0 -6 37 -14 105 -23 28 -3 57 -8 66 -9 9 -2 40 -6 69
-10 29 -4 60 -8 69 -10 9 -1 41 -6 71 -10 30 -4 64 -9 75 -11 11 -2 40 -7 65
-10 25 -3 56 -7 70 -9 14 -2 48 -7 75 -11 28 -3 59 -8 70 -10 11 -2 45 -7 75
-10 30 -3 57 -7 60 -9 10 -6 130 -16 130 -11 0 2 -42 123 -94 268 -52 145
-132 368 -177 496 -46 127 -86 232 -89 232 -3 0 -70 -88 -150 -196z"/>
<path d="M2970 3532 c-12 -37 -28 -80 -35 -97 -12 -28 -26 -67 -31 -90 -2 -5
-18 -53 -37 -105 -78 -215 -227 -632 -227 -637 0 -6 114 7 150 17 16 4 30 6
33 4 2 -2 28 0 58 6 56 9 72 12 205 30 44 6 91 13 105 15 13 3 49 8 79 11 30
3 57 7 61 9 3 3 30 7 60 10 30 3 65 7 78 10 13 2 48 7 79 11 85 10 87 10 87
21 0 13 -617 840 -632 847 -7 3 -20 -19 -33 -62z"/>
<path d="M1410 1986 c481 -482 876 -876 878 -876 4 0 -1 8 -127 214 -50 81
-91 152 -91 157 0 5 -4 9 -9 9 -5 0 -11 6 -13 13 -2 7 -100 171 -218 365 -118
195 -273 449 -343 565 -71 117 -132 215 -135 219 -6 6 -635 167 -787 202 -23
5 172 -195 845 -868z"/>
<path d="M4175 2760 c-214 -55 -393 -99 -397 -100 -3 0 -33 -44 -66 -97 -159
-261 -875 -1439 -879 -1448 -3 -5 389 384 871 865 482 481 876 876 876 877 0
5 -12 2 -405 -97z"/>
<path d="M1490 2625 c0 -7 8 -23 18 -36 10 -13 38 -58 62 -99 25 -41 49 -83
55 -92 5 -9 22 -36 36 -60 14 -24 101 -167 194 -318 92 -151 180 -295 195
-320 15 -25 91 -151 170 -280 79 -129 175 -288 214 -353 l71 -117 3 767 c1
421 1 767 -1 769 -1 2 -18 6 -37 9 -19 3 -46 8 -60 10 -14 3 -45 7 -70 10 -43
5 -195 27 -350 49 -120 18 -261 38 -295 42 -22 3 -77 11 -122 18 -65 10 -83
11 -83 1z"/>
<path d="M3585 2629 c-22 -4 -62 -10 -90 -13 -221 -29 -878 -125 -882 -130 -2
-2 -2 -347 -1 -768 l3 -766 310 510 c171 281 322 529 336 552 15 22 73 118
129 211 57 94 134 221 172 283 38 62 68 116 66 120 -2 4 -21 5 -43 1z"/>
</g>
</svg>
